<svg width="184" height="43" viewBox="0 0 184 43" fill="none" xmlns="http://www.w3.org/2000/svg">
<g clip-path="url(#clip0_591_1590)">
<path d="M59.2148 29.787V4.78317H64.4959V15.328L64.1601 20.6886L64.2578 26.0796V29.787H59.2148ZM69.9479 30.0544C68.5272 30.0979 67.1201 29.7667 65.8696 29.0941C64.665 28.3848 63.7293 27.2995 63.2077 26.0066C62.5507 24.3334 62.2412 22.545 62.298 20.7494C62.2322 18.948 62.5614 17.154 63.2626 15.4921C63.8245 14.2293 64.7621 13.1686 65.9489 12.4533C67.1657 11.7631 68.5478 11.4144 69.9479 11.4444C71.5744 11.4154 73.1796 11.8159 74.6001 12.6052C75.9595 13.375 77.0825 14.4992 77.8481 15.8568C78.6842 17.3596 79.1055 19.0561 79.0691 20.7737C79.1066 22.4933 78.6853 24.1921 77.8481 25.6967C77.0807 27.053 75.9582 28.1768 74.6001 28.9483C73.1733 29.7158 71.5691 30.0973 69.9479 30.0544ZM69.0626 25.7392C69.8886 25.7496 70.7023 25.5398 71.4192 25.1314C72.1257 24.7233 72.6999 24.1222 73.0738 23.3993C73.5036 22.5658 73.7137 21.6372 73.6843 20.7008C73.7186 19.7658 73.5083 18.838 73.0738 18.0083C72.6891 17.301 72.1168 16.7124 71.4192 16.3066C70.7023 15.8982 69.8886 15.6884 69.0626 15.6988C68.2331 15.6906 67.416 15.9002 66.6938 16.3066C65.9883 16.7082 65.409 17.2975 65.0209 18.0083C64.5864 18.838 64.376 19.7658 64.4104 20.7008C64.381 21.6372 64.5911 22.5658 65.0209 23.3993C65.3998 24.1247 65.9806 24.7261 66.6938 25.1314C67.416 25.5378 68.2331 25.7474 69.0626 25.7392Z" fill="#010101"/>
<path d="M82.5737 29.787V11.6571H87.6167V16.811L86.9024 15.2977C87.4086 14.0558 88.3292 13.0255 89.5093 12.3803C90.8552 11.6835 92.3583 11.3424 93.8746 11.3897V16.2519C93.6731 16.2093 93.4777 16.1789 93.264 16.1546C93.0798 16.1308 92.8942 16.1186 92.7084 16.1182C91.4099 16.0448 90.1342 16.4813 89.1552 17.3337C88.272 18.1643 87.8304 19.4447 87.8304 21.1748V29.787H82.5737Z" fill="#010101"/>
<path d="M105.773 19.1753H105.132V22.2081H105.773V19.1753Z" fill="#010101"/>
<path d="M108.112 13.3406C106.581 12.04 104.426 11.3897 101.646 11.3897C101.091 11.3897 100.529 11.3897 99.9795 11.4687V15.6198C100.298 15.5832 100.618 15.565 100.938 15.5651C102.073 15.4756 103.201 15.8115 104.101 16.5071C104.452 16.8462 104.727 17.2568 104.905 17.7109C105.083 18.1651 105.16 18.6521 105.132 19.1388H105.779V22.1777H105.132V24.001L105.944 26.4625C105.825 26.8168 105.667 27.1571 105.474 27.4775V29.7323H110.413V19.4001C110.413 16.6611 109.646 14.6413 108.112 13.3406Z" fill="#010101"/>
<path d="M105.132 24.0557V25.4475L105.474 26.2254V27.5079C105.667 27.1875 105.825 26.8472 105.944 26.4929L105.132 24.0557Z" fill="#010101"/>
<path d="M105.133 25.4475V24.0557C104.881 24.8382 104.346 25.4991 103.631 25.9094C102.886 26.3256 102.043 26.5354 101.189 26.5172C100.425 26.5534 99.6701 26.34 99.0396 25.9094C98.7854 25.7286 98.5799 25.488 98.4415 25.2092C98.303 24.9304 98.2359 24.6218 98.2459 24.311C98.2414 24.0228 98.3009 23.7371 98.4201 23.4744C98.5394 23.2118 98.7155 22.9786 98.9358 22.7915C99.3998 22.3904 100.255 22.1838 101.494 22.1838H105.114V19.1449H100.951C99.4098 19.0925 97.8724 19.3211 96.4143 19.8195C95.4207 20.1382 94.559 20.7716 93.9605 21.623C93.362 22.4745 93.0595 23.4974 93.0992 24.5358C93.0867 25.5316 93.3761 26.5081 93.9295 27.3377C94.5177 28.1954 95.3306 28.8764 96.28 29.3069C97.4178 29.8129 98.6546 30.0599 99.9004 30.0301C101.271 30.0861 102.631 29.7666 103.832 29.1063C104.493 28.7087 105.049 28.1609 105.456 27.5079V26.2498L105.133 25.4475Z" fill="#010101"/>
<path d="M125.231 11.3897C126.571 11.3693 127.897 11.6629 129.102 12.2467C130.247 12.8263 131.185 13.7431 131.788 14.8722C132.494 16.2767 132.831 17.8369 132.765 19.4062V29.787H127.484V20.2146C127.484 18.7559 127.166 17.6802 126.519 16.9812C126.167 16.6224 125.742 16.3433 125.272 16.1629C124.802 15.9825 124.299 15.9051 123.796 15.9358C123.011 15.9244 122.237 16.1104 121.543 16.4768C120.877 16.8368 120.335 17.3872 119.987 18.057C119.58 18.9205 119.389 19.8694 119.431 20.8223V29.787H114.15V11.6571H119.193V16.6773L118.247 15.164C118.879 13.9704 119.857 12.994 121.055 12.3621C122.343 11.6954 123.779 11.3611 125.231 11.3897Z" fill="#010101"/>
<path d="M9.01134 30.2064C7.39224 30.2315 5.79539 29.8289 4.38356 29.0394C3.03427 28.2768 1.92291 27.1579 1.1722 25.8061C0.402013 24.3272 0 22.6857 0 21.0199C0 19.354 0.402013 17.7126 1.1722 16.2336C1.92445 14.8924 3.03625 13.7856 4.38356 13.0368C5.79897 12.2582 7.39447 11.8622 9.01134 11.8881C10.5057 11.8567 11.9813 12.2239 13.285 12.9517C14.5573 13.6808 15.5965 14.7533 16.2827 16.0452C17.0614 17.5888 17.4372 19.3028 17.3755 21.029C17.4232 22.7495 17.0436 24.455 16.2705 25.9945C15.5998 27.299 14.5681 28.3851 13.2972 29.1245C11.991 29.8591 10.5113 30.2326 9.01134 30.2064ZM9.18229 28.0488C10.3918 28.0676 11.5845 27.7655 12.6379 27.1736C13.6515 26.6021 14.4847 25.7601 15.0433 24.7425C15.6216 23.5979 15.9227 22.3345 15.9227 21.0533C15.9227 19.7721 15.6216 18.5087 15.0433 17.3641C14.4844 16.3467 13.6513 15.5047 12.6379 14.933C11.5845 14.3411 10.3918 14.039 9.18229 14.0578C7.99297 14.0258 6.81671 14.3112 5.77556 14.8844C4.7688 15.4648 3.93783 16.3046 3.37009 17.3155C2.78429 18.4578 2.47886 19.7221 2.47886 21.0047C2.47886 22.2872 2.78429 23.5515 3.37009 24.6939C3.93734 25.7051 4.76843 26.545 5.77556 27.125C6.8071 27.7321 7.98395 28.0512 9.18229 28.0488ZM15.9896 30.0301V24.6209L16.2338 20.9743L15.8858 17.3276V4.56439H18.3279V30.0301H15.9896Z" fill="#010101"/>
<path d="M23.9449 8.08947C23.708 8.09507 23.4725 8.0521 23.253 7.96323C23.0335 7.87435 22.8347 7.74148 22.6689 7.57286C22.5054 7.41523 22.3757 7.22626 22.2875 7.01735C22.1994 6.80843 22.1547 6.5839 22.1561 6.35731C22.1514 6.13026 22.1946 5.90474 22.2829 5.69536C22.3713 5.48597 22.5028 5.29737 22.6689 5.14177C22.8373 4.97788 23.037 4.84931 23.2562 4.7637C23.4753 4.67809 23.7096 4.63718 23.9449 4.64339C24.4153 4.63033 24.8718 4.80292 25.2148 5.12353C25.3846 5.27663 25.519 5.46462 25.6086 5.6745C25.6982 5.88438 25.7409 6.11114 25.7338 6.33908C25.7392 6.57238 25.6977 6.8044 25.6117 7.0215C25.5258 7.2386 25.397 7.43639 25.2332 7.60325C25.0641 7.76882 24.8622 7.89756 24.6404 7.98127C24.4187 8.06497 24.1818 8.10182 23.9449 8.08947ZM22.7239 30.0301V12.0765H25.166V30.0301H22.7239Z" fill="#010101"/>
<path d="M44.9532 12.0765V15.4557C45.0386 15.5833 45.118 15.711 45.1974 15.8447C45.9903 17.2971 46.3822 18.9329 46.333 20.5853C46.3854 22.2438 45.9935 23.8863 45.1974 25.3442C45.0875 25.5265 44.9715 25.7088 44.8494 25.879V28.1521C44.8494 30.3887 44.3121 32.0378 43.2376 33.0994C42.1631 34.1609 40.478 34.6897 38.1825 34.6857H37.8955V36.8372H38.2496C41.229 36.8372 43.4818 36.1139 45.0081 34.6674C46.5344 33.2209 47.2956 30.9458 47.2915 27.8421V12.0765H44.9532Z" fill="#010101"/>
<path d="M45.1971 20.5853L44.9529 17.5039V15.4375C44.2533 14.3539 43.2808 13.4717 42.1322 12.8787C40.7904 12.2069 39.3055 11.867 37.8036 11.8881C36.1879 11.8646 34.5915 12.2404 33.1575 12.9821C31.8178 13.6826 30.695 14.7332 29.9095 16.0209C29.0969 17.4035 28.6868 18.9839 28.7251 20.5853C28.6935 22.1821 29.1032 23.7568 29.9095 25.1375C30.6865 26.4475 31.8101 27.5197 33.1575 28.2372C34.5875 28.9914 36.1856 29.374 37.8036 29.3494C39.3098 29.3703 40.7975 29.0173 42.1322 28.3223C43.2231 27.744 44.1556 26.9095 44.8491 25.8912V23.6667L45.1971 20.5853ZM41.5828 26.3531C40.4878 26.9043 39.2779 27.1915 38.0509 27.1915C36.8239 27.1915 35.614 26.9043 34.519 26.3531C33.503 25.8188 32.6572 25.0126 32.0769 24.0253C31.4778 22.9784 31.1741 21.7899 31.1977 20.5853C31.1717 19.3843 31.4757 18.199 32.0769 17.1575C32.6616 16.1783 33.5067 15.3791 34.519 14.8479C35.614 14.2967 36.8239 14.0095 38.0509 14.0095C39.2779 14.0095 40.4878 14.2967 41.5828 14.8479C42.5914 15.3841 43.4353 16.1822 44.0249 17.1575C44.6375 18.1951 44.9482 19.382 44.9223 20.5853C44.9467 21.7923 44.6361 22.9826 44.0249 24.0253C43.4396 25.0086 42.595 25.8136 41.5828 26.3531Z" fill="#010101"/>
<path d="M46.3327 20.5853C46.3852 18.9268 45.9932 17.2843 45.1971 15.8264C45.1178 15.6927 45.0384 15.5651 44.9529 15.4375V17.5039L45.1971 20.5853L44.8491 23.6667V25.879C44.9712 25.7088 45.0872 25.5265 45.1971 25.3442C45.9932 23.8863 46.3852 22.2438 46.3327 20.5853Z" fill="#010101"/>
<path d="M53.0363 8.08947C52.7994 8.09507 52.5638 8.0521 52.3443 7.96323C52.1248 7.87435 51.926 7.74148 51.7603 7.57286C51.5967 7.41523 51.467 7.22626 51.3789 7.01735C51.2907 6.80843 51.246 6.5839 51.2474 6.35731C51.2427 6.13026 51.2859 5.90474 51.3742 5.69536C51.4626 5.48597 51.5941 5.29737 51.7603 5.14177C51.9286 4.97788 52.1283 4.84931 52.3475 4.7637C52.5667 4.67809 52.8009 4.63718 53.0363 4.64339C53.5066 4.63033 53.9631 4.80292 54.3062 5.12353C54.4759 5.27663 54.6103 5.46462 54.6999 5.6745C54.7895 5.88438 54.8322 6.11114 54.8251 6.33908C54.8305 6.57238 54.789 6.8044 54.703 7.0215C54.6171 7.2386 54.4884 7.43639 54.3245 7.60325C54.1554 7.76882 53.9535 7.89756 53.7317 7.98127C53.51 8.06497 53.2731 8.10182 53.0363 8.08947ZM51.8152 30.0301V12.0765H54.2573V30.0301H51.8152Z" fill="#010101"/>
<path d="M184 0H176.38L168.492 12.0765L163.181 4.78318H149.926V13.5473C149.513 13.0957 149.033 12.7085 148.504 12.3986C147.277 11.7048 145.885 11.356 144.474 11.3897C142.854 11.3645 141.256 11.7649 139.841 12.5505C138.475 13.3117 137.349 14.438 136.593 15.8021C135.772 17.3097 135.364 19.0051 135.408 20.719C135.363 22.4349 135.772 24.1325 136.593 25.642C137.351 27.0048 138.476 28.1306 139.841 28.8936C141.257 29.6765 142.854 30.0768 144.474 30.0544C145.908 30.1062 147.329 29.7746 148.589 29.0941C149.19 28.7398 149.723 28.2831 150.165 27.7449V29.8174H163.291L168.401 22.1047L173.59 29.8174H181.747L172.412 16.8718L184 0ZM149.401 23.4175C149.023 24.1429 148.442 24.7443 147.729 25.1497C147.006 25.556 146.189 25.7656 145.36 25.7575C144.54 25.7632 143.734 25.5535 143.021 25.1497C142.306 24.7465 141.725 24.1446 141.349 23.4175C140.919 22.584 140.709 21.6555 140.738 20.719C140.704 19.784 140.914 18.8562 141.349 18.0266C141.736 17.3166 142.315 16.7291 143.021 16.3309C143.734 15.927 144.54 15.7174 145.36 15.7231C146.189 15.7149 147.006 15.9245 147.729 16.3309C148.434 16.7325 149.013 17.3218 149.401 18.0327C149.836 18.8623 150.046 19.7901 150.012 20.7251C150.04 21.6595 149.83 22.5858 149.401 23.4175ZM165.122 18.6404L157.705 27.4592C157.548 27.677 157.325 27.8394 157.069 27.9232C156.814 28.0069 156.538 28.0075 156.282 27.925C156.026 27.8425 155.802 27.6811 155.644 27.4641C155.486 27.2471 155.402 26.9857 155.403 26.7177C155.4 26.659 155.4 26.6002 155.403 26.5415V7.70049C155.406 7.42258 155.501 7.1535 155.674 6.93487C155.846 6.71625 156.086 6.56027 156.356 6.49108C156.627 6.42188 156.913 6.44331 157.17 6.55207C157.426 6.66083 157.64 6.85085 157.778 7.09272L165.104 16.969C165.311 17.1997 165.424 17.4987 165.422 17.8078C165.43 18.1129 165.324 18.4101 165.122 18.6404Z" fill="#D91B5D"/>
<path d="M54.723 41.0733C54.2226 41.0844 53.728 40.965 53.2883 40.7269C52.8841 40.5095 52.5498 40.183 52.3237 39.7849C52.086 39.3664 51.9658 38.8919 51.9757 38.4113C51.9664 37.9349 52.0799 37.4641 52.3053 37.0438C52.5246 36.649 52.8481 36.3214 53.2408 36.0964C53.6336 35.8715 54.0807 35.7577 54.5338 35.7675C54.9927 35.7597 55.4456 35.8729 55.8464 36.0957C56.225 36.3212 56.5351 36.6447 56.7439 37.0317C56.9698 37.4562 57.0832 37.931 57.0735 38.4113C57.0768 38.4457 57.0768 38.4803 57.0735 38.5146V38.6301H52.519V38.1074H56.695L56.4142 38.3141C56.4182 37.9628 56.3343 37.616 56.17 37.3052C56.0133 37.0215 55.7836 36.7844 55.5045 36.6184C55.2123 36.4481 54.8784 36.3619 54.5399 36.3692C54.2016 36.3641 53.8683 36.4502 53.5752 36.6184C53.2893 36.7804 53.0561 37.0209 52.9037 37.3112C52.7407 37.6267 52.6589 37.9776 52.6656 38.3323V38.4417C52.6587 38.8071 52.7492 39.1678 52.9281 39.4871C53.1004 39.7884 53.3571 40.0334 53.6668 40.1921C53.9998 40.3661 54.3714 40.4539 54.7474 40.4473C55.053 40.4509 55.3562 40.393 55.6388 40.2772C55.9157 40.1655 56.1609 39.9882 56.3531 39.7606L56.75 40.2164C56.5145 40.4857 56.217 40.6942 55.883 40.8242C55.5171 40.9841 55.1226 41.0689 54.723 41.0733Z" fill="#010101"/>
<path d="M57.5923 41.0247L59.8024 38.1682V38.5146L57.7022 35.8161H58.502L60.2236 38.0466H59.9245L61.6462 35.8283H62.4276L60.303 38.5572V38.1803L62.5314 41.0369H61.7255L59.894 38.6544L60.1748 38.6909L58.386 41.0247H57.5923Z" fill="#010101"/>
<path d="M63.71 42.9453V35.8161H64.3876V37.3842L64.3144 38.4234L64.4182 39.4749V42.9453H63.71ZM66.4085 41.0733C65.9804 41.0789 65.5586 40.9698 65.1874 40.7573C64.8174 40.5469 64.5163 40.2346 64.3205 39.8578C64.0883 39.4116 63.9748 38.9136 63.9908 38.4113C63.9787 37.9205 64.0877 37.4343 64.3083 36.9952C64.5024 36.6172 64.8039 36.3044 65.1752 36.0957C65.5495 35.8923 65.9699 35.7876 66.3963 35.7918C66.8649 35.784 67.3276 35.8971 67.7394 36.12C68.1293 36.3412 68.4503 36.665 68.6674 37.056C68.8921 37.4836 69.0094 37.9591 69.0094 38.4417C69.0094 38.9243 68.8921 39.3997 68.6674 39.8274C68.448 40.215 68.1273 40.5363 67.7394 40.7573C67.331 40.9763 66.8722 41.0852 66.4085 41.0733ZM66.3596 40.4656C66.7084 40.4713 67.0522 40.3831 67.3548 40.2103C67.6484 40.0419 67.8893 39.7958 68.0508 39.4992C68.2316 39.172 68.3222 38.8029 68.3133 38.4295C68.3224 38.06 68.2317 37.6948 68.0508 37.372C67.8865 37.0704 67.6415 36.8199 67.343 36.6483C67.0445 36.4766 66.7042 36.3906 66.3596 36.3996C66.0089 36.3936 65.6631 36.4818 65.3584 36.6548C65.0639 36.8249 64.8229 37.0732 64.6624 37.372C64.4863 37.6964 64.3979 38.0609 64.406 38.4295C64.398 38.8021 64.4863 39.1704 64.6624 39.4992C64.82 39.7986 65.0619 40.0457 65.3584 40.2103C65.6649 40.377 66.0106 40.4588 66.3596 40.4473V40.4656Z" fill="#010101"/>
<path d="M72.6844 41.0734C72.1841 41.0836 71.6897 40.9642 71.2497 40.7269C70.8467 40.5079 70.5128 40.1818 70.2851 39.7849C70.0474 39.3664 69.9272 38.892 69.9371 38.4113C69.9279 37.9349 70.0414 37.4641 70.2668 37.0438C70.4875 36.6504 70.8114 36.3239 71.2038 36.0991C71.5962 35.8743 72.0425 35.7597 72.4952 35.7675C72.9542 35.7591 73.4072 35.8723 73.8078 36.0957C74.1886 36.3185 74.4994 36.6427 74.7053 37.0317C74.9312 37.4562 75.0447 37.931 75.035 38.4113V38.5146C75.0321 38.5531 75.0321 38.5917 75.035 38.6301H70.4743V38.1074H74.6503L74.3695 38.3141C74.3764 37.9625 74.2923 37.615 74.1253 37.3052C73.9686 37.0215 73.7389 36.7844 73.4598 36.6184C73.1676 36.4482 72.8337 36.3619 72.4952 36.3692C72.1571 36.365 71.824 36.451 71.5306 36.6184C71.2464 36.7808 71.0153 37.0214 70.8651 37.3112C70.6973 37.6252 70.6132 37.9768 70.6209 38.3323V38.4417C70.6131 38.808 70.706 39.1695 70.8895 39.4871C71.0596 39.788 71.3142 40.033 71.6221 40.1921C71.9551 40.3661 72.3267 40.4539 72.7028 40.4474C73.0103 40.4509 73.3155 40.393 73.6002 40.2772C73.8756 40.166 74.119 39.9885 74.3084 39.7606L74.7053 40.2164C74.4698 40.4857 74.1723 40.6942 73.8383 40.8242C73.4746 40.984 73.082 41.0688 72.6844 41.0734Z" fill="#010101"/>
<path d="M76.4819 41.0247V35.8161H77.1596V37.2322L77.0925 36.983C77.2218 36.6047 77.4813 36.2839 77.8251 36.0775C78.2277 35.8566 78.6848 35.7534 79.1438 35.7796V36.4482H78.9851C78.7461 36.4342 78.5069 36.4715 78.2836 36.5575C78.0603 36.6434 77.8581 36.7761 77.6908 36.9466C77.3538 37.3415 77.1851 37.8518 77.2207 38.3688V41.0308L76.4819 41.0247Z" fill="#010101"/>
<path d="M80.7554 34.6613C80.6876 34.6634 80.62 34.6514 80.557 34.6263C80.494 34.6012 80.4368 34.5635 80.3891 34.5155C80.3396 34.4699 80.3004 34.4143 80.2741 34.3525C80.2478 34.2907 80.2349 34.224 80.2364 34.1569C80.235 34.0907 80.2479 34.0249 80.2742 33.9641C80.3006 33.9033 80.3397 33.8488 80.3891 33.8044C80.4881 33.7119 80.6196 33.6617 80.7554 33.6646C80.8228 33.6618 80.8901 33.6727 80.9531 33.6968C81.0161 33.7208 81.0735 33.7574 81.1217 33.8044C81.1716 33.8471 81.2112 33.9004 81.2376 33.9603C81.264 34.0203 81.2766 34.0854 81.2743 34.1508C81.2761 34.2188 81.2638 34.2865 81.2382 34.3496C81.2127 34.4127 81.1744 34.47 81.1258 34.5178C81.0771 34.5656 81.0192 34.603 80.9555 34.6277C80.8918 34.6524 80.8237 34.6638 80.7554 34.6613ZM80.3952 41.0247V35.8161H81.1034V41.0247H80.3952Z" fill="#010101"/>
<path d="M91.7498 35.7797C92.1363 35.7715 92.5192 35.8548 92.867 36.0228C93.1902 36.1834 93.4548 36.4405 93.6241 36.7582C93.8201 37.1458 93.9146 37.5765 93.8988 38.0102V41.049H93.1906V38.0892C93.2235 37.6366 93.0766 37.1892 92.7816 36.8433C92.6291 36.6916 92.4468 36.5729 92.2462 36.4945C92.0456 36.416 91.8309 36.3796 91.6155 36.3874C91.2779 36.3789 90.9438 36.4563 90.6447 36.6123C90.381 36.7613 90.1683 36.9858 90.0342 37.2565C89.8748 37.5707 89.7971 37.9197 89.8083 38.2715V41.0126H89.1001V35.8161H89.7778V37.2444L89.6679 36.977C89.8325 36.6037 90.1127 36.2928 90.4677 36.0896C90.8592 35.8732 91.3022 35.7661 91.7498 35.7797Z" fill="#010101"/>
<path d="M97.9647 41.0734C97.4802 41.0816 97.002 40.9621 96.5788 40.7269C96.1759 40.5079 95.8419 40.1818 95.6142 39.7849C95.386 39.3627 95.2666 38.8907 95.2666 38.4113C95.2666 37.9319 95.386 37.46 95.6142 37.0378C95.8413 36.6419 96.1755 36.3176 96.5788 36.1018C96.9795 35.8944 97.4219 35.7796 97.8733 35.7659C98.3246 35.7522 98.7732 35.84 99.1858 36.0228C99.5396 36.1901 99.8351 36.4589 100.034 36.7946L99.5033 37.1532C99.3426 36.8929 99.1121 36.6824 98.8378 36.5455C98.5625 36.4276 98.264 36.3736 97.9647 36.3874C97.613 36.3832 97.2662 36.469 96.9574 36.6366C96.6593 36.8032 96.4139 37.0495 96.2492 37.3477C96.0806 37.6804 95.9928 38.0478 95.9928 38.4204C95.9928 38.793 96.0806 39.1605 96.2492 39.4932C96.4133 39.7903 96.6589 40.0348 96.9574 40.1982C97.2431 40.3536 97.5612 40.4406 97.8866 40.4522C98.2119 40.4638 98.5355 40.3997 98.8317 40.265C99.1051 40.1267 99.3353 39.9165 99.4972 39.6573L100.028 40.0158C99.8273 40.3502 99.5323 40.6185 99.1797 40.7877C98.8016 40.9733 98.3862 41.0709 97.9647 41.0734Z" fill="#010101"/>
<path d="M103.557 41.0734C103.057 41.0853 102.562 40.9658 102.123 40.7269C101.716 40.5104 101.38 40.1838 101.152 39.7849C100.914 39.3664 100.794 38.892 100.804 38.4113C100.794 37.9341 100.909 37.4626 101.14 37.0438C101.353 36.6545 101.67 36.3308 102.055 36.1079C102.453 35.8766 102.907 35.7588 103.368 35.7675C103.825 35.759 104.276 35.8723 104.675 36.0957C105.057 36.3184 105.37 36.6424 105.578 37.0317C105.804 37.4562 105.918 37.931 105.908 38.4113C105.908 38.4478 105.908 38.4843 105.908 38.5146C105.905 38.5531 105.905 38.5917 105.908 38.6301H101.353V38.1074H105.529L105.248 38.3141C105.255 37.9625 105.171 37.615 105.004 37.3052C104.853 37.0199 104.624 36.7822 104.345 36.6184C104.052 36.4502 103.718 36.3641 103.38 36.3692C103.04 36.3651 102.705 36.4511 102.41 36.6184C102.125 36.7808 101.894 37.0214 101.744 37.3112C101.581 37.6268 101.499 37.9776 101.506 38.3323V38.4417C101.496 38.8075 101.587 39.169 101.768 39.4871C101.941 39.7885 102.197 40.0334 102.507 40.1921C102.84 40.3674 103.212 40.4552 103.588 40.4474C103.893 40.4509 104.197 40.393 104.479 40.2772C104.756 40.1655 105.001 39.9882 105.194 39.7606L105.59 40.2164C105.353 40.4859 105.053 40.6944 104.717 40.8242C104.352 40.985 103.957 41.0698 103.557 41.0734Z" fill="#010101"/>
<path d="M85.7541 41.0734C85.2536 41.0853 84.7587 40.9658 84.3193 40.7269C83.9129 40.5104 83.5764 40.1838 83.3486 39.7849C83.111 39.3664 82.9908 38.892 83.0006 38.4113C82.9905 37.9341 83.1063 37.4626 83.3364 37.0438C83.5501 36.6545 83.8669 36.3308 84.2522 36.1079C84.65 35.8766 85.1042 35.7588 85.5648 35.7675C86.0219 35.759 86.473 35.8723 86.8713 36.0957C87.2538 36.3184 87.5666 36.6424 87.7749 37.0317C88.0008 37.4562 88.1143 37.931 88.1046 38.4113C88.1046 38.4478 88.1046 38.4843 88.1046 38.5146C88.1017 38.5531 88.1017 38.5917 88.1046 38.6301H83.5501V38.1074H87.7261L87.4452 38.3141C87.4522 37.9625 87.3681 37.615 87.201 37.3052C87.0493 37.0199 86.821 36.7822 86.5417 36.6184C86.2486 36.4502 85.9153 36.3641 85.577 36.3692C85.237 36.3651 84.9019 36.4511 84.6063 36.6184C84.3221 36.7808 84.0911 37.0214 83.9408 37.3112C83.7779 37.6268 83.6961 37.9776 83.7027 38.3323V38.4417C83.6928 38.8075 83.7836 39.169 83.9652 39.4871C84.1375 39.7885 84.3942 40.0334 84.704 40.1921C85.0365 40.3674 85.4085 40.4552 85.7846 40.4474C86.0902 40.4509 86.3934 40.393 86.676 40.2772C86.9528 40.1655 87.1981 39.9882 87.3903 39.7606L87.7871 40.2164C87.5494 40.4859 87.2499 40.6944 86.9141 40.8242C86.5485 40.985 86.1538 41.0698 85.7541 41.0734Z" fill="#010101"/>
<path d="M112.043 41.0733C111.573 41.08 111.11 40.9625 110.7 40.733C110.31 40.5118 109.989 40.188 109.772 39.797C109.539 39.3724 109.422 38.8949 109.43 38.4113C109.42 37.9275 109.538 37.4495 109.772 37.0256C109.992 36.638 110.312 36.3167 110.7 36.0957C111.112 35.8728 111.575 35.7597 112.043 35.7675C112.47 35.7641 112.89 35.8687 113.264 36.0714C113.64 36.29 113.945 36.6104 114.144 36.9952C114.357 37.4457 114.467 37.9376 114.467 38.4356C114.467 38.9336 114.357 39.4255 114.144 39.876C113.952 40.2554 113.653 40.5704 113.283 40.7816C112.904 40.9888 112.475 41.0896 112.043 41.0733ZM112.092 40.4656C112.443 40.4715 112.789 40.3833 113.093 40.2103C113.39 40.0457 113.632 39.7986 113.789 39.4992C113.958 39.1676 114.046 38.8012 114.046 38.4295C114.046 38.0579 113.958 37.6915 113.789 37.3598C113.63 37.0617 113.389 36.815 113.093 36.6488C112.787 36.4806 112.442 36.3947 112.092 36.3996C111.748 36.3947 111.409 36.4807 111.109 36.6488C110.816 36.8199 110.574 37.0652 110.407 37.3598C110.239 37.6915 110.151 38.0579 110.151 38.4295C110.151 38.8012 110.239 39.1676 110.407 39.4992C110.574 39.797 110.819 40.0441 111.115 40.2143C111.412 40.3845 111.75 40.4713 112.092 40.4656ZM114.064 41.043V39.4749L114.137 38.4235L114.034 37.372V33.6646H114.742V41.0247L114.064 41.043Z" fill="#010101"/>
<path d="M118.936 41.0734C118.436 41.0836 117.942 40.9642 117.502 40.7269C117.099 40.5079 116.765 40.1818 116.537 39.7849C116.299 39.3664 116.179 38.8919 116.189 38.4113C116.179 37.9341 116.295 37.4626 116.525 37.0438C116.739 36.6545 117.055 36.3308 117.441 36.1078C117.83 35.885 118.273 35.7716 118.723 35.7796C119.182 35.7712 119.635 35.8845 120.035 36.1078C120.416 36.3325 120.729 36.6561 120.939 37.0438C121.16 37.4698 121.271 37.944 121.263 38.4235V38.5268C121.26 38.5652 121.26 38.6038 121.263 38.6423H116.708V38.1196H120.884L120.603 38.3262C120.61 37.9746 120.526 37.6272 120.359 37.3173C120.204 37.0344 119.976 36.7974 119.7 36.6305C119.402 36.4626 119.065 36.3785 118.723 36.3874C118.385 36.3841 118.052 36.4701 117.758 36.6366C117.474 36.799 117.243 37.0396 117.093 37.3295C116.93 37.645 116.848 37.9958 116.855 38.3505V38.4599C116.845 38.8257 116.935 39.1872 117.117 39.5053C117.289 39.8046 117.543 40.049 117.85 40.2103C118.185 40.3848 118.558 40.4726 118.936 40.4656C119.242 40.4691 119.545 40.4113 119.828 40.2954C120.103 40.1842 120.347 40.0067 120.536 39.7788L120.939 40.2346C120.7 40.5027 120.401 40.711 120.066 40.8424C119.708 40.9928 119.325 41.0713 118.936 41.0734Z" fill="#010101"/>
<path d="M124.138 41.0733C123.724 41.0749 123.312 41.0134 122.917 40.891C122.59 40.7938 122.283 40.6372 122.013 40.4291L122.331 39.87C122.866 40.2503 123.504 40.462 124.162 40.4777C124.538 40.508 124.915 40.4255 125.243 40.2407C125.345 40.1752 125.428 40.0852 125.486 39.9789C125.544 39.8727 125.573 39.7537 125.573 39.6329C125.574 39.549 125.558 39.4657 125.525 39.3883C125.493 39.3109 125.444 39.2411 125.383 39.1832C125.244 39.0635 125.079 38.9781 124.901 38.934C124.682 38.8738 124.46 38.8271 124.235 38.7942L123.503 38.6544C123.272 38.6041 123.048 38.5244 122.837 38.4174C122.645 38.3183 122.48 38.1745 122.355 37.998C122.223 37.7828 122.159 37.5328 122.172 37.2808C122.169 37.009 122.252 36.7432 122.41 36.5211C122.59 36.2821 122.833 36.097 123.112 35.9863C123.473 35.8508 123.856 35.7867 124.242 35.7979C124.586 35.7975 124.929 35.8424 125.261 35.9316C125.558 36.0015 125.841 36.1207 126.098 36.2841L125.786 36.8493C125.559 36.6939 125.307 36.5768 125.041 36.5029C124.78 36.4357 124.511 36.401 124.242 36.3996C123.879 36.3741 123.517 36.4589 123.204 36.6427C123.102 36.7087 123.018 36.7987 122.959 36.9047C122.901 37.0107 122.869 37.1295 122.868 37.2504C122.863 37.3369 122.877 37.4234 122.909 37.5042C122.94 37.5849 122.989 37.6579 123.051 37.7184C123.194 37.8387 123.36 37.9278 123.539 37.9798C123.76 38.0459 123.984 38.0967 124.211 38.1317L124.938 38.2776C125.168 38.3287 125.391 38.4062 125.603 38.5085C125.798 38.5972 125.967 38.7355 126.091 38.9097C126.221 39.1171 126.285 39.3585 126.275 39.6025C126.28 39.886 126.192 40.1635 126.024 40.3926C125.829 40.6281 125.574 40.8066 125.286 40.9092C124.916 41.0304 124.527 41.0859 124.138 41.0733Z" fill="#010101"/>
<path d="M127.954 34.6614C127.887 34.6622 127.82 34.6497 127.757 34.6248C127.695 34.5999 127.638 34.563 127.59 34.5161C127.541 34.4693 127.503 34.4135 127.476 34.3518C127.45 34.2902 127.436 34.2239 127.435 34.1569C127.435 34.0909 127.448 34.0255 127.474 33.9648C127.501 33.9041 127.539 33.8495 127.588 33.8044C127.689 33.7143 127.821 33.6645 127.957 33.6645C128.093 33.6645 128.225 33.7143 128.326 33.8044C128.374 33.8484 128.412 33.9021 128.437 33.9619C128.463 34.0216 128.475 34.086 128.473 34.1508C128.475 34.2184 128.463 34.2856 128.438 34.3483C128.413 34.4111 128.375 34.468 128.326 34.5155C128.278 34.5643 128.22 34.6025 128.156 34.6276C128.092 34.6527 128.023 34.6642 127.954 34.6614ZM127.594 41.0247V35.8161H128.302V41.0247H127.594Z" fill="#010101"/>
<path d="M132.38 40.8242C131.912 40.8308 131.45 40.7201 131.037 40.502C130.644 40.295 130.316 39.9837 130.09 39.6025C129.867 39.1998 129.749 38.747 129.749 38.2867C129.749 37.8264 129.867 37.3736 130.09 36.9709C130.317 36.5932 130.645 36.2859 131.037 36.0835C131.451 35.8674 131.913 35.7587 132.38 35.7675C132.814 35.7589 133.244 35.857 133.632 36.0531C134.005 36.2453 134.314 36.5408 134.523 36.904C134.742 37.3313 134.856 37.8041 134.856 38.2837C134.856 38.7633 134.742 39.236 134.523 39.6633C134.313 40.0285 134.004 40.3276 133.632 40.5264C133.246 40.7292 132.816 40.8316 132.38 40.8242ZM132.508 42.9939C132.042 42.9964 131.579 42.9267 131.134 42.7873C130.736 42.6693 130.37 42.4613 130.066 42.1795L130.426 41.6447C130.692 41.8765 131.001 42.0541 131.336 42.1673C131.707 42.2972 132.097 42.363 132.49 42.3618C133.02 42.4053 133.547 42.2394 133.955 41.8999C134.124 41.7032 134.252 41.4752 134.331 41.229C134.411 40.9828 134.441 40.7233 134.419 40.4656V39.1649L134.523 38.2715L134.45 37.3781V35.8161H135.127V40.3866C135.159 40.7441 135.116 41.1042 135.003 41.4449C134.89 41.7856 134.707 42.0997 134.468 42.3679C133.921 42.8215 133.218 43.0459 132.508 42.9939ZM132.447 40.1982C132.804 40.2058 133.157 40.1221 133.473 39.9551C133.768 39.8016 134.014 39.5676 134.181 39.2804C134.358 38.9782 134.449 38.6335 134.444 38.2837C134.449 37.9357 134.358 37.593 134.181 37.293C134.01 37.0105 133.765 36.7794 133.473 36.6244C133.156 36.4648 132.805 36.3816 132.45 36.3816C132.095 36.3816 131.745 36.4648 131.428 36.6244C131.134 36.7776 130.889 37.0091 130.719 37.293C130.544 37.5936 130.456 37.9363 130.463 38.2837C130.455 38.633 130.544 38.9777 130.719 39.2804C130.885 39.5689 131.131 39.8032 131.428 39.9551C131.741 40.1213 132.092 40.205 132.447 40.1982Z" fill="#010101"/>
<path d="M139.774 35.7796C140.16 35.7715 140.543 35.8548 140.891 36.0227C141.215 36.1817 141.48 36.4392 141.648 36.7581C141.844 37.1458 141.939 37.5765 141.923 38.0102V41.049H141.215V38.0892C141.247 37.6366 141.101 37.1892 140.806 36.8432C140.651 36.6983 140.468 36.5864 140.269 36.5142C140.07 36.4421 139.857 36.4114 139.645 36.4239C139.308 36.4146 138.974 36.492 138.675 36.6487C138.4 36.7935 138.177 37.0183 138.034 37.293C137.877 37.6082 137.8 37.9564 137.808 38.308V41.049H137.1V35.8161H137.777V37.2444L137.649 36.9952C137.814 36.622 138.094 36.311 138.449 36.1078C138.851 35.8774 139.31 35.7637 139.774 35.7796Z" fill="#010101"/>
<path d="M146.447 42.9453V35.8161H147.124V37.3842L147.057 38.4235L147.155 39.4749V42.9453H146.447ZM149.145 41.0734C148.717 41.0792 148.295 40.97 147.924 40.7573C147.553 40.5471 147.25 40.2348 147.051 39.8578C146.84 39.4057 146.73 38.913 146.73 38.4143C146.73 37.9157 146.84 37.423 147.051 36.9709C147.247 36.5941 147.548 36.2817 147.918 36.0714C148.293 35.8687 148.713 35.7641 149.139 35.7675C149.608 35.7597 150.071 35.8728 150.482 36.0957C150.874 36.316 151.198 36.6399 151.416 37.0317C151.637 37.4605 151.752 37.9355 151.752 38.4174C151.752 38.8993 151.637 39.3742 151.416 39.8031C151.197 40.1926 150.874 40.5144 150.482 40.733C150.074 40.9615 149.613 41.0789 149.145 41.0734ZM149.096 40.4656C149.447 40.4715 149.793 40.3833 150.098 40.2103C150.389 40.0388 150.629 39.7934 150.794 39.4992C150.97 39.1704 151.058 38.8021 151.05 38.4295C151.058 38.0609 150.97 37.6964 150.794 37.372C150.626 37.0786 150.387 36.832 150.098 36.6548C149.791 36.4873 149.446 36.3994 149.096 36.3994C148.746 36.3994 148.402 36.4873 148.095 36.6548C147.813 36.826 147.579 37.0667 147.418 37.3538C147.241 37.6782 147.153 38.0426 147.161 38.4113C147.153 38.7838 147.241 39.1522 147.418 39.481C147.579 39.7775 147.82 40.0237 148.114 40.1921C148.413 40.3612 148.752 40.4492 149.096 40.4474V40.4656Z" fill="#010101"/>
<path d="M154.646 41.0734C154.296 41.0805 153.949 41.0143 153.627 40.8789C153.36 40.7661 153.132 40.5807 152.967 40.344C152.812 40.1097 152.731 39.8345 152.735 39.5539C152.727 39.2974 152.788 39.0434 152.912 38.8185C153.056 38.581 153.269 38.3924 153.523 38.2776C153.901 38.1296 154.307 38.0613 154.713 38.077H156.545V38.5997H154.762C154.389 38.5625 154.015 38.6572 153.706 38.8671C153.612 38.951 153.537 39.0542 153.486 39.1696C153.435 39.285 153.411 39.4098 153.413 39.5357C153.409 39.6734 153.438 39.8101 153.499 39.9339C153.559 40.0578 153.649 40.1652 153.761 40.2468C154.048 40.4414 154.391 40.5355 154.738 40.5142C155.101 40.5246 155.459 40.4295 155.769 40.2407C156.054 40.0537 156.269 39.778 156.38 39.4567L156.539 39.9429C156.403 40.2831 156.161 40.5709 155.849 40.7634C155.484 40.9748 155.068 41.0821 154.646 41.0734ZM156.478 41.0247V39.87L156.447 39.6816V37.761C156.46 37.5744 156.433 37.3871 156.369 37.2113C156.305 37.0355 156.205 36.8749 156.075 36.7399C155.766 36.4791 155.367 36.3502 154.964 36.3814C154.632 36.3784 154.303 36.4361 153.993 36.5515C153.709 36.6506 153.446 36.8011 153.217 36.9952L152.9 36.4664C153.184 36.2352 153.509 36.0599 153.859 35.9498C154.237 35.8269 154.633 35.7653 155.031 35.7675C155.598 35.7293 156.159 35.9075 156.6 36.2659C156.797 36.4656 156.949 36.7052 157.044 36.9684C157.14 37.2316 157.178 37.5123 157.155 37.7914V41.0247H156.478Z" fill="#010101"/>
<path d="M159.054 41.0247V35.8161H159.731V37.2322L159.658 36.9831C159.789 36.604 160.051 36.2833 160.397 36.0775C160.788 35.859 161.231 35.7518 161.679 35.7675V36.4482H161.52C161.281 36.4346 161.042 36.4721 160.819 36.558C160.596 36.644 160.394 36.7765 160.226 36.9466C159.893 37.3437 159.727 37.853 159.762 38.3688V41.0308L159.054 41.0247Z" fill="#010101"/>
<path d="M162.381 36.3874V35.7796H165.617V36.3874H162.381ZM164.854 41.0612C164.647 41.0841 164.438 41.0606 164.242 40.9925C164.046 40.9244 163.867 40.8134 163.72 40.6677C163.572 40.522 163.459 40.3452 163.389 40.1504C163.319 39.9555 163.294 39.7476 163.315 39.5418V34.6796H164.024V39.5418C164.008 39.7958 164.091 40.046 164.256 40.2407C164.344 40.328 164.451 40.3954 164.567 40.4383C164.684 40.4813 164.809 40.4989 164.933 40.4899C165.216 40.5013 165.493 40.4057 165.709 40.2225L165.959 40.7269C165.813 40.8562 165.64 40.9517 165.452 41.0065C165.257 41.0587 165.056 41.0812 164.854 41.0733V41.0612Z" fill="#010101"/>
<path d="M169.915 35.7796C170.302 35.7715 170.685 35.8548 171.033 36.0228C171.356 36.1834 171.62 36.4405 171.79 36.7582C171.986 37.1458 172.08 37.5765 172.064 38.0102V41.049H171.356V38.0892C171.373 37.8645 171.345 37.6386 171.274 37.4248C171.203 37.2109 171.09 37.0132 170.941 36.8433C170.787 36.6977 170.604 36.5854 170.405 36.5132C170.205 36.4411 169.993 36.4107 169.781 36.4239C169.443 36.4146 169.109 36.492 168.81 36.6488C168.547 36.7978 168.334 37.0222 168.2 37.293C168.04 37.6072 167.963 37.9562 167.974 38.308V41.049H167.266V35.8161H167.943V37.2444L167.809 36.9952C167.972 36.6208 168.252 36.3093 168.609 36.1078C169.006 35.8807 169.458 35.7672 169.915 35.7796Z" fill="#010101"/>
<path d="M176.198 41.0734C175.697 41.0836 175.203 40.9642 174.763 40.7269C174.36 40.5079 174.026 40.1818 173.798 39.7849C173.561 39.3664 173.44 38.8919 173.45 38.4113C173.44 37.9341 173.556 37.4626 173.786 37.0438C174 36.6545 174.317 36.3308 174.702 36.1078C175.097 35.8765 175.55 35.7587 176.008 35.7675C176.467 35.7591 176.92 35.8723 177.321 36.0957C177.702 36.3204 178.014 36.6439 178.225 37.0317C178.446 37.4576 178.557 37.9318 178.548 38.4113V38.5146C178.545 38.5531 178.545 38.5917 178.548 38.6301H173.994V38.1074H178.17L177.889 38.3141C177.896 37.9625 177.812 37.615 177.645 37.3052C177.49 37.0222 177.262 36.7853 176.985 36.6184C176.69 36.4494 176.355 36.3633 176.015 36.3692C175.676 36.3658 175.344 36.4518 175.05 36.6184C174.766 36.7808 174.535 37.0214 174.384 37.3112C174.221 37.6267 174.14 37.9776 174.146 38.3323V38.4417C174.136 38.8075 174.227 39.169 174.409 39.4871C174.581 39.7863 174.835 40.0308 175.141 40.1921C175.476 40.3666 175.85 40.4544 176.228 40.4473C176.534 40.4509 176.837 40.393 177.12 40.2772C177.395 40.166 177.638 39.9885 177.828 39.7606L178.231 40.2164C177.992 40.4845 177.693 40.6927 177.358 40.8242C176.992 40.9848 176.597 41.0696 176.198 41.0734Z" fill="#010101"/>
<path d="M179.995 41.0247V35.8161H180.673V37.2322L180.606 36.983C180.737 36.6057 180.996 36.2855 181.338 36.0775C181.731 35.8579 182.177 35.7506 182.626 35.7675V36.4482H182.468C182.229 36.4342 181.99 36.4715 181.766 36.5575C181.543 36.6435 181.341 36.7761 181.173 36.9466C180.837 37.3415 180.668 37.8518 180.703 38.3688V41.0308L179.995 41.0247Z" fill="#010101"/>
</g>
<defs>
<clipPath id="clip0_591_1590">
<rect width="184" height="43" fill="white"/>
</clipPath>
</defs>
</svg>
