<svg width="34" height="34" viewBox="0 0 34 34" fill="none" xmlns="http://www.w3.org/2000/svg">
<path d="M33.0283 5.63955L27.5312 0.142393C27.44 0.0512076 27.3165 0 27.1875 0C27.0586 0 26.9351 0.0512076 26.8439 0.142393L25.4694 1.51691C25.0508 1.93555 25.0292 2.6026 25.4038 3.04774L21.6302 4.49907C21.499 4.54938 21.3962 4.65404 21.3481 4.7861L19.855 8.87595H1.78148C0.799106 8.87595 0 9.67506 0 10.6574V31.3893C0 32.3716 0.799106 33.1707 1.78148 33.1707H22.5133C23.4957 33.1707 24.2948 32.3716 24.2948 31.3893V13.3157L28.3846 11.8226C28.5167 11.7746 28.6209 11.6717 28.6717 11.5405L30.123 7.76691C30.3332 7.94389 30.5924 8.03283 30.852 8.03283C31.1422 8.03283 31.4328 7.92233 31.6538 7.70133L33.0283 6.32681C33.1195 6.23563 33.1707 6.1121 33.1707 5.98318C33.1707 5.85427 33.1195 5.73074 33.0283 5.63955ZM18.8762 12.4389C18.9319 12.5728 19.0132 12.6972 19.1192 12.8032L20.3675 14.0515C20.4735 14.1575 20.598 14.2388 20.7318 14.295V29.6073H3.56341V12.4389H18.8762ZM23.3232 31.3893C23.3232 31.8358 22.9598 32.1991 22.5133 32.1991H1.78148C1.33499 32.1991 0.971594 31.8358 0.971594 31.3893V10.6574C0.971594 10.2109 1.33499 9.84755 1.78148 9.84755H19.5001L18.909 11.4673H3.07739C2.80922 11.4673 2.59137 11.6847 2.59137 11.9533V30.0938C2.59137 30.362 2.80877 30.5798 3.07739 30.5798H21.2178C21.486 30.5798 21.7039 30.3624 21.7039 30.0938V14.2617L23.3232 13.6706V31.3893ZM27.8443 10.9853L21.2246 13.402C21.1657 13.4235 21.0988 13.4087 21.0543 13.3642L20.774 13.0839L24.1434 9.71459C24.4125 9.86462 24.7116 9.94008 25.0117 9.94008C25.4681 9.94008 25.924 9.76624 26.2717 9.41902C26.9661 8.72458 26.9661 7.59397 26.2717 6.89953C25.5772 6.20463 24.4466 6.20463 23.7522 6.89953C23.1768 7.47494 23.0784 8.34951 23.4566 9.02733L20.0872 12.3967L19.8069 12.1164C19.7625 12.0719 19.7477 12.0054 19.7692 11.9462L22.1858 5.32647L26.1513 3.80103L29.3697 7.01946L27.8443 10.9853ZM24.439 7.58678C24.5966 7.42912 24.8042 7.35006 25.0117 7.35006C25.2192 7.35006 25.4263 7.42912 25.5844 7.58678C25.9002 7.90256 25.9002 8.41644 25.5844 8.73221C25.2686 9.04799 24.7547 9.04799 24.439 8.73221C24.1232 8.41599 24.1232 7.90256 24.439 7.58678ZM30.967 7.01407C30.9037 7.07741 30.8013 7.07741 30.7379 7.01407L26.1567 2.4328C26.0933 2.36947 26.0933 2.26705 26.1567 2.20372L27.1875 1.17283L31.9979 5.98318L30.967 7.01407Z" fill="black"/>
<path d="M7.79221 22.4492C7.85061 22.6594 8.04196 22.8049 8.26027 22.8049H16.0348C16.2531 22.8049 16.4445 22.6594 16.5029 22.4492L17.7988 17.7844C17.8491 17.6029 17.7902 17.4088 17.6474 17.2858C17.5046 17.1631 17.3038 17.1339 17.1317 17.2107L14.2767 18.4909L12.5662 15.5932C12.4786 15.445 12.3196 15.3542 12.148 15.3542C11.9759 15.3542 11.8169 15.445 11.7298 15.5932L10.0193 18.4909L7.16425 17.2107C6.99221 17.1335 6.79142 17.1627 6.64858 17.2858C6.50574 17.4084 6.44689 17.6029 6.4972 17.7844L7.79221 22.4492ZM10.0175 19.5555C10.2434 19.6566 10.5089 19.5721 10.6347 19.3592L12.148 16.7961L13.6609 19.3592C13.7866 19.5721 14.0525 19.6566 14.278 19.5555L16.5855 18.521L15.6656 21.8333H8.62995L7.71001 18.521L10.0175 19.5555Z" fill="black"/>
<path d="M16.034 23.7769H8.25946C7.99129 23.7769 7.77344 23.9943 7.77344 24.2629V25.5588C7.77344 26.1841 8.28192 26.6925 8.90719 26.6925H15.3858C16.0111 26.6925 16.5196 26.1841 16.5196 25.5588V24.2629C16.52 23.9943 16.3022 23.7769 16.034 23.7769ZM15.548 25.5583C15.548 25.6477 15.4752 25.7205 15.3858 25.7205H8.90764C8.81825 25.7205 8.74548 25.6477 8.74548 25.5583V24.7484H15.548V25.5583Z" fill="black"/>
</svg>
