<svg width="25" height="26" viewBox="0 0 25 26" fill="none" xmlns="http://www.w3.org/2000/svg">
<g clip-path="url(#clip0_668_2068)">
<path d="M12.3598 2.41001C14.4718 2.40209 16.5386 3.02115 18.2986 4.18876C20.0585 5.35637 21.4323 7.02001 22.246 8.96898C23.0598 10.918 23.2768 13.0646 22.8696 15.137C22.4624 17.2094 21.4494 19.1144 19.9588 20.6106C18.4681 22.1068 16.567 23.127 14.4961 23.542C12.4253 23.9569 10.2779 23.748 8.32583 22.9416C6.37381 22.1352 4.70502 20.7676 3.5308 19.0121C2.35659 17.2565 1.72979 15.192 1.72977 13.08C1.73506 10.2518 2.86091 7.54089 4.86078 5.54102C6.86065 3.54115 9.57153 2.4153 12.3998 2.41001M12.3998 0.720007C9.95392 0.714071 7.5613 1.43392 5.52477 2.78844C3.48824 4.14296 1.89935 6.07125 0.959252 8.32921C0.0191513 10.5872 -0.229901 13.0733 0.243619 15.4729C0.717139 17.8725 1.89194 20.0776 3.61932 21.8092C5.34669 23.5408 7.54898 24.7209 9.9474 25.2003C12.3458 25.6796 14.8325 25.4366 17.0928 24.502C19.353 23.5674 21.2852 21.9832 22.6446 19.95C24.0041 17.9167 24.7298 15.5259 24.7298 13.08C24.7298 11.456 24.4097 9.84797 23.788 8.34774C23.1662 6.8475 22.2549 5.48449 21.1061 4.33663C19.9573 3.18877 18.5935 2.27854 17.0928 1.65798C15.5921 1.03742 13.9838 0.718693 12.3598 0.720007H12.3998Z" fill="black"/>
<path d="M17.1385 18.3934L13.1173 12.2095L12.6626 11.5101L9.54832 6.72H6.01363L10.7 13.9287L14.4658 19.72H18L17.138 18.394L17.1385 18.3934ZM14.8862 18.8732L11.6937 13.9629L11.239 13.2641L7.5347 7.56626H9.12793L12.5784 12.873L16.4794 18.8732H14.8862Z" fill="black"/>
<path d="M11.239 13.2641L11.6937 13.9629L7.01993 19.7195H6L10.7 13.9287L11.239 13.2641Z" fill="black"/>
<path d="M17.5751 6.72L13.1173 12.2095L12.5784 12.873L12.1241 12.1742L12.6626 11.5101L15.6821 7.78958L16.5551 6.72H17.5751Z" fill="black"/>
</g>
<defs>
<clipPath id="clip0_668_2068">
<rect width="24.72" height="24.72" fill="white" transform="translate(0 0.720001)"/>
</clipPath>
</defs>
</svg>
