<svg xmlns="http://www.w3.org/2000/svg" width="25" height="25" viewBox="0 0 25 25" fill="none">
  <g clip-path="url(#clip0_773_3788)">
    <path d="M12.36 1.69C14.4703 1.69 16.5333 2.31579 18.2879 3.48822C20.0426 4.66066 21.4102 6.32708 22.2178 8.27676C23.0254 10.2265 23.2367 12.3718 22.825 14.4416C22.4133 16.5114 21.3971 18.4126 19.9048 19.9048C18.4126 21.3971 16.5114 22.4133 14.4416 22.825C12.3718 23.2367 10.2265 23.0254 8.27678 22.2178C6.32709 21.4102 4.66066 20.0426 3.48822 18.2879C2.31579 16.5333 1.69001 14.4703 1.69001 12.36C1.69529 9.53176 2.82115 6.82088 4.82102 4.82101C6.82089 2.82115 9.53177 1.69529 12.36 1.69ZM12.36 0C9.91543 0 7.52575 0.724904 5.49316 2.08304C3.46057 3.44117 1.87635 5.37154 0.940854 7.63004C0.00535452 9.88853 -0.239414 12.3737 0.2375 14.7713C0.714413 17.1689 1.89159 19.3713 3.62017 21.0998C5.34874 22.8284 7.55108 24.0056 9.94869 24.4825C12.3463 24.9594 14.8315 24.7147 17.09 23.7792C19.3485 22.8437 21.2788 21.2594 22.637 19.2269C23.9951 17.1943 24.72 14.8046 24.72 12.36C24.7068 9.0906 23.3987 5.95961 21.0822 3.65247C18.7657 1.34532 15.6294 0.0499763 12.36 0.0500031V0Z" fill="black"/>
    <path fill-rule="evenodd" clip-rule="evenodd" d="M11.4591 15.17V15.28C11.2673 16.478 10.8894 17.6387 10.3391 18.72C10.0862 19.1716 9.79869 19.6029 9.47907 20.01C9.47907 20.01 9.40907 20.11 9.33907 20.1C9.26907 20.09 9.25907 20.01 9.24907 19.95C9.15896 19.3209 9.12549 18.6851 9.14907 18.05C9.14907 17.24 9.27907 16.96 10.3291 12.54C10.3436 12.4775 10.3436 12.4125 10.3291 12.35C10.0682 11.6926 10.0399 10.9657 10.2491 10.29C10.7291 8.78002 12.4291 8.67002 12.7291 9.91002C12.9191 10.68 12.4291 11.69 12.0591 13.17C11.7491 14.4 13.1891 15.27 14.4291 14.38C15.6691 13.49 16.0091 11.57 15.9191 10.17C15.7591 7.37001 12.6891 6.76001 10.7391 7.67001C8.50907 8.67001 7.99907 11.46 9.00907 12.73C9.13907 12.89 9.23907 12.99 9.19907 13.15C9.15907 13.31 9.06907 13.66 8.99907 13.91C8.99056 13.952 8.97217 13.9914 8.94542 14.0249C8.91867 14.0584 8.88433 14.085 8.84525 14.1026C8.80616 14.1202 8.76344 14.1282 8.72063 14.1261C8.67783 14.1239 8.63615 14.1115 8.59907 14.09C8.23418 13.9403 7.91392 13.6992 7.66907 13.39C7.18066 12.6607 6.91992 11.8028 6.91992 10.925C6.91992 10.0473 7.18066 9.18933 7.66907 8.46002C8.29328 7.54903 9.15949 6.83044 10.1701 6.38521C11.1807 5.93997 12.2956 5.78578 13.3891 5.94002C14.4718 6.0114 15.4992 6.44457 16.3062 7.16998C17.1133 7.89539 17.6531 8.87095 17.8391 9.94002C18.0346 11.5947 17.599 13.2624 16.6191 14.61C15.1691 16.41 12.8191 16.53 11.7291 15.43C11.6091 15.37 11.5391 15.27 11.4591 15.17Z" fill="black"/>
  </g>
  <defs>
    <clipPath id="clip0_773_3788">
      <rect width="24.72" height="24.72" fill="white"/>
    </clipPath>
  </defs>
</svg>