<svg xmlns="http://www.w3.org/2000/svg" width="240" height="240" fill="none" viewBox="0 0 240 240"><path fill="#000" d="M142.952 118.176L105.83 96.7515C105.194 96.3697 104.345 96.3697 103.709 96.7515C103.073 97.1333 102.648 97.8121 102.648 98.5758V141.424C102.648 142.188 103.073 142.867 103.709 143.248C104.048 143.418 104.388 143.545 104.77 143.545C105.152 143.545 105.491 143.461 105.83 143.248L142.952 121.824C143.588 121.442 144.012 120.764 144.012 120C144.012 119.236 143.588 118.558 142.952 118.176ZM106.891 137.776V102.267L137.648 120L106.891 137.733V137.776ZM179.394 50H60.6061C54.7515 50 50 54.7515 50 60.6061V179.394C50 185.248 54.7515 190 60.6061 190H179.394C185.248 190 190 185.248 190 179.394V60.6061C190 54.7515 185.248 50 179.394 50ZM75.4545 117.879H54.2424V88.1818H75.4545V117.879ZM54.2424 122.121H75.4545V151.818H54.2424V122.121ZM79.697 153.939V54.2424H160.303V185.758H79.697V153.939ZM185.758 117.879H164.545V88.1818H185.758V117.879ZM164.545 122.121H185.758V151.818H164.545V122.121ZM179.394 54.2424C182.915 54.2424 185.758 57.0848 185.758 60.6061V83.9394H164.545V54.2424H179.394ZM54.2424 60.6061C54.2424 57.0848 57.0848 54.2424 60.6061 54.2424H75.4545V83.9394H54.2424V60.6061ZM60.6061 185.758C57.0848 185.758 54.2424 182.915 54.2424 179.394V156.061H75.4545V185.758H60.6061ZM185.758 179.394C185.758 182.915 182.915 185.758 179.394 185.758H164.545V156.061H185.758V179.394Z"/></svg>