<svg width="240" height="240" viewBox="0 0 240 240" fill="none" xmlns="http://www.w3.org/2000/svg">
<path d="M208.142 65.1978L180.656 37.712C180.2 37.256 179.582 37 178.938 37C178.293 37 177.676 37.256 177.22 37.712L170.347 44.5845C168.254 46.6778 168.146 50.013 170.019 52.2387L151.151 59.4953C150.495 59.7469 149.981 60.2702 149.741 60.9305L142.275 81.3798H51.9074C46.9955 81.3798 43 85.3753 43 90.2872V193.946C43 198.858 46.9955 202.854 51.9074 202.854H155.566C160.478 202.854 164.474 198.858 164.474 193.946V103.579L184.923 96.1131C185.583 95.8728 186.105 95.3585 186.358 94.7027L193.615 75.8345C194.666 76.7194 195.962 77.1641 197.26 77.1641C198.711 77.1641 200.164 76.6116 201.269 75.5066L208.142 68.6341C208.598 68.1781 208.854 67.5605 208.854 66.9159C208.854 66.2713 208.598 65.6537 208.142 65.1978ZM137.381 99.1946C137.66 99.8639 138.066 100.486 138.596 101.016L144.838 107.257C145.368 107.788 145.99 108.194 146.659 108.475V185.037H60.817V99.1946H137.381ZM159.616 193.946C159.616 196.179 157.799 197.996 155.566 197.996H51.9074C49.6749 197.996 47.858 196.179 47.858 193.946V90.2872C47.858 88.0547 49.6749 86.2377 51.9074 86.2377H140.501L137.545 94.3366H58.3869C57.0461 94.3366 55.9568 95.4236 55.9568 96.7667V187.469C55.9568 188.81 57.0439 189.899 58.3869 189.899H149.089C150.43 189.899 151.519 188.812 151.519 187.469V108.309L159.616 105.353V193.946ZM182.221 91.9267L149.123 104.01C148.829 104.118 148.494 104.044 148.272 103.821L146.87 102.42L163.717 85.5729C165.062 86.3231 166.558 86.7004 168.058 86.7004C170.34 86.7004 172.62 85.8312 174.358 84.0951C177.831 80.6229 177.831 74.9699 174.358 71.4976C170.886 68.0232 165.233 68.0232 161.761 71.4976C158.884 74.3747 158.392 78.7475 160.283 82.1367L143.436 98.9834L142.035 97.582C141.812 97.3596 141.738 97.0272 141.846 96.7308L153.929 63.6324L173.756 56.0051L189.849 72.0973L182.221 91.9267ZM165.195 74.9339C165.983 74.1456 167.021 73.7503 168.058 73.7503C169.096 73.7503 170.131 74.1456 170.922 74.9339C172.501 76.5128 172.501 79.0822 170.922 80.6611C169.343 82.24 166.774 82.24 165.195 80.6611C163.616 79.0799 163.616 76.5128 165.195 74.9339ZM197.835 72.0703C197.518 72.387 197.006 72.387 196.69 72.0703L173.783 49.164C173.467 48.8473 173.467 48.3353 173.783 48.0186L178.938 42.8641L202.99 66.9159L197.835 72.0703Z" fill="black"/>
<path d="M81.9611 149.245C82.253 150.296 83.2098 151.024 84.3013 151.024H123.174C124.266 151.024 125.222 150.296 125.514 149.245L131.994 125.921C132.245 125.014 131.951 124.044 131.237 123.428C130.523 122.815 129.519 122.669 128.659 123.053L114.383 129.454L105.831 114.966C105.393 114.224 104.598 113.771 103.74 113.771C102.88 113.771 102.085 114.224 101.649 114.966L93.0964 129.454L78.8212 123.053C77.961 122.667 76.9571 122.813 76.2429 123.428C75.5287 124.041 75.2345 125.014 75.486 125.921L81.9611 149.245ZM93.0874 134.777C94.2172 135.282 95.5445 134.86 96.1734 133.796L103.74 120.98L111.304 133.796C111.933 134.86 113.263 135.282 114.39 134.777L125.928 129.605L121.328 146.166H86.1497L81.5501 129.605L93.0874 134.777Z" fill="black"/>
<path d="M123.172 155.884H84.2992C82.9584 155.884 81.8691 156.971 81.8691 158.314V164.794C81.8691 167.92 84.4115 170.463 87.5379 170.463H119.931C123.057 170.463 125.6 167.92 125.6 164.794V158.314C125.602 156.971 124.513 155.884 123.172 155.884ZM120.742 164.792C120.742 165.239 120.378 165.603 119.931 165.603H87.5401C87.0932 165.603 86.7294 165.239 86.7294 164.792V160.742H120.742V164.792Z" fill="black"/>
</svg>
