<svg xmlns="http://www.w3.org/2000/svg" width="25" height="26" viewBox="0 0 25 26" fill="none">
  <g clip-path="url(#clip0_773_3802)">
    <path d="M12.36 2.40997C14.4703 2.40997 16.5333 3.03576 18.2879 4.20819C20.0426 5.38063 21.4102 7.04705 22.2178 8.99673C23.0254 10.9464 23.2367 13.0918 22.825 15.1616C22.4133 17.2314 21.3971 19.1326 19.9048 20.6248C18.4126 22.117 16.5114 23.1332 14.4416 23.545C12.3719 23.9567 10.2265 23.7454 8.27678 22.9378C6.32709 22.1302 4.66067 20.7626 3.48823 19.0079C2.3158 17.2532 1.69001 15.1903 1.69001 13.08C1.6953 10.2517 2.82116 7.54085 4.82103 5.54099C6.82089 3.54112 9.53178 2.41526 12.36 2.40997ZM12.36 0.719971C9.91544 0.719971 7.52575 1.44487 5.49316 2.80301C3.46057 4.16114 1.87635 6.09151 0.940854 8.35001C0.00535452 10.6085 -0.239414 13.0937 0.2375 15.4913C0.714413 17.8889 1.8916 20.0912 3.62017 21.8198C5.34875 23.5484 7.55109 24.7256 9.9487 25.2025C12.3463 25.6794 14.8315 25.4346 17.09 24.4991C19.3485 23.5636 21.2788 21.9794 22.637 19.9468C23.9951 17.9142 24.72 15.5245 24.72 13.08C24.7068 9.81057 23.3987 6.67958 21.0822 4.37244C18.7657 2.06529 15.6294 0.769947 12.36 0.769974V0.719971Z" fill="black"/>
    <path fill-rule="evenodd" clip-rule="evenodd" d="M7.2003 17.37C6.96465 17.2976 6.75032 17.1686 6.576 16.9943C6.40169 16.82 6.27269 16.6056 6.2003 16.37C5.7703 15.18 5.6403 10.21 6.4703 9.22998C6.74421 8.90204 7.13528 8.69394 7.5603 8.64998C10.8903 8.40607 14.2346 8.43283 17.5603 8.72998C17.7876 8.80308 17.9956 8.92644 18.1687 9.0909C18.3418 9.25536 18.4756 9.4567 18.5603 9.67998C19.0303 10.91 19.0503 15.37 18.4903 16.56C18.3441 16.8691 18.0973 17.1194 17.7903 17.27C16.9003 17.77 8.3003 17.77 7.2003 17.37ZM10.7603 15.04L14.7603 12.94L10.7603 10.84V15.04Z" fill="black"/>
  </g>
  <defs>
    <clipPath id="clip0_773_3802">
      <rect width="24.72" height="24.72" fill="white" transform="translate(0 0.719971)"/>
    </clipPath>
  </defs>
</svg>