<svg width="240" height="240" viewBox="0 0 240 240" fill="none" xmlns="http://www.w3.org/2000/svg">
<path d="M191.275 74.3992L165.606 48.7306C164.632 47.7565 163.069 47.7565 162.095 48.7306L116.422 94.4038L88.8501 67.2854C88.8275 67.2627 88.8048 67.2401 88.7821 67.2401C88.6915 67.1494 88.6009 67.0815 88.4876 67.0135C88.4423 66.9909 88.397 66.9455 88.3517 66.9229C88.2384 66.8549 88.1025 66.8096 87.9666 66.7416C87.9212 66.719 87.8986 66.719 87.8759 66.6963L50.5172 55.0062C49.6337 54.7343 48.6822 54.9609 48.0252 55.6179C47.3681 56.2749 47.1416 57.2264 47.4135 58.11L59.081 95.446C59.1489 95.6726 59.2622 95.8764 59.3981 96.0803C59.4435 96.1483 59.4888 96.1936 59.5341 96.2616C59.602 96.3296 59.6474 96.4202 59.7153 96.4881L87.2642 123.584L47.7306 163.095C46.7565 164.069 46.7565 165.632 47.7306 166.606L73.3992 192.275C73.8523 192.728 74.4866 193 75.1436 193C75.8006 193 76.435 192.728 76.8881 192.275L116.807 152.356L149.113 183.757C149.521 184.164 150.042 184.346 150.563 184.414C154.301 187.88 159.15 189.806 164.292 189.806C169.684 189.806 174.782 187.699 178.588 183.893C186.359 176.122 186.449 163.525 178.882 155.619C178.769 155.211 178.543 154.826 178.225 154.531L145.828 123.357L191.275 77.9107C192.249 76.9366 192.249 75.3733 191.275 74.3992ZM84.0472 70.6837L82.1894 76.9819L73.5577 79.5193C72.7422 79.7458 72.1078 80.3802 71.8812 81.1958L69.3438 89.8275L63.0457 91.6852L53.5304 61.1458L84.0472 70.6837ZM75.1663 187.019L52.9867 164.839L62.3207 155.505L73.3992 166.584C73.8749 167.06 74.5093 167.309 75.1436 167.309C75.778 167.309 76.4123 167.06 76.8881 166.584C77.8623 165.61 77.8623 164.046 76.8881 163.072L65.8096 152.016L74.8944 142.932L85.9729 154.01C86.4486 154.486 87.083 154.735 87.7173 154.735C88.3517 154.735 88.986 154.486 89.4618 154.01C90.436 153.036 90.436 151.473 89.4618 150.499L78.3833 139.42L90.7758 127.028L113.273 148.89L75.1663 187.019ZM175.099 180.358C169.548 185.886 160.804 186.271 154.8 181.514L176.232 160.082C181.012 166.063 180.65 174.83 175.099 180.358ZM150.835 178.501L92.339 121.636L66.1721 95.8991L72.0625 94.1773C72.8781 93.9507 73.5124 93.3164 73.739 92.5008L76.2764 83.8691L84.9081 81.3317C85.7237 81.1051 86.358 80.4708 86.5846 79.6552L88.329 73.6968L140.55 125.079L172.992 156.321L150.835 178.501ZM142.317 119.868L119.956 97.8701L132.666 85.1605L143.744 96.2389C144.22 96.7147 144.854 96.9639 145.489 96.9639C146.123 96.9639 146.757 96.7147 147.233 96.2389C148.207 95.2648 148.207 93.7015 147.233 92.7274L136.154 81.6489L146.485 71.318L157.564 82.3965C158.04 82.8723 158.674 83.1215 159.308 83.1215C159.943 83.1215 160.577 82.8723 161.053 82.3965C162.027 81.4223 162.027 79.8591 161.053 78.8849L149.974 67.8064L163.839 53.9414L186.019 76.121L142.317 119.868Z" fill="black"/>
</svg>
