<?xml version="1.0" encoding="UTF-8"?>
<svg id="Layer_1" xmlns="http://www.w3.org/2000/svg" version="1.1" viewBox="0 0 240 240">
  <!-- Generator: Adobe Illustrator 29.4.0, SVG Export Plug-In . SVG Version: 2.1.0 Build 152)  -->
  <path d="M181.3,50.19H58.7c-4.8,0-8.51,3.71-8.51,8.51v122.6c0,4.8,3.71,8.51,8.51,8.51h122.6c4.58,0,8.51-3.71,8.51-8.51V58.7c0-4.8-3.71-8.51-8.51-8.51ZM58.7,54.34h122.6c2.4,0,4.14,1.96,4.14,4.14v17.89H54.34v-17.67c0-2.4,1.96-4.36,4.36-4.36ZM181.3,185.66H58.7c-2.4,0-4.14-1.96-4.14-4.14v-101h131.11v100.78c0,2.4-1.96,4.36-4.36,4.36Z"/>
  <path d="M120,104.73c-27.92,0-50.17,25.96-51.05,27.05-.65.87-.65,1.96,0,2.84.87.87,23.12,26.61,51.05,26.61s50.17-25.74,51.05-26.83c.65-.87.65-1.96,0-2.84-.87-.87-23.12-26.83-51.05-26.83ZM120,157.09c-22.47,0-41.67-18.76-46.47-24,5.02-5.24,24.21-24,46.47-24s41.67,18.76,46.47,24c-4.8,5.24-24,24-46.47,24Z"/>
  <path d="M120,117.38c-8.73,0-15.71,6.98-15.71,15.71s6.98,15.71,15.71,15.71,15.71-6.98,15.71-15.71-6.98-15.71-15.71-15.71ZM120,144.43c-6.33,0-11.56-5.24-11.56-11.56s5.24-11.56,11.56-11.56,11.56,5.24,11.56,11.56-5.24,11.56-11.56,11.56Z"/>
  <path d="M106.69,72.23c3.71,0,6.98-3.05,6.98-6.98s-3.05-6.98-6.98-6.98-6.98,3.27-6.98,7.2,3.05,6.76,6.98,6.76ZM106.69,62.85c1.53,0,2.62,1.09,2.62,2.62s-1.09,2.62-2.62,2.62-2.62-1.31-2.62-2.62,1.09-2.62,2.62-2.62Z"/>
  <path d="M86.62,72.23c3.71,0,6.98-3.05,6.98-6.98s-3.05-6.98-6.98-6.98c-3.71,0-6.98,3.05-6.98,6.98s3.05,6.98,6.98,6.98ZM86.62,62.85c1.53,0,2.62,1.09,2.62,2.62s-1.09,2.62-2.62,2.62-2.62-1.09-2.62-2.62,1.09-2.62,2.62-2.62Z"/>
  <path d="M66.55,72.23c3.71,0,6.98-3.05,6.98-6.98s-3.05-6.98-6.98-6.98-6.98,3.27-6.98,7.2,3.05,6.76,6.98,6.76ZM66.55,62.85c1.53,0,2.62,1.09,2.62,2.62s-1.31,2.62-2.62,2.62c-1.53,0-2.84-1.31-2.84-2.62s1.31-2.62,2.84-2.62Z"/>
</svg>