<svg width="25" height="26" viewBox="0 0 25 26" fill="none" xmlns="http://www.w3.org/2000/svg">
<g clip-path="url(#clip0_668_2029)">
<g clip-path="url(#clip1_668_2029)">
<path d="M12.36 2.41C14.4703 2.41 16.5333 3.03579 18.2879 4.20822C20.0426 5.38066 21.4102 7.04708 22.2178 8.99677C23.0254 10.9465 23.2367 13.0918 22.825 15.1616C22.4133 17.2314 21.3971 19.1326 19.9048 20.6248C18.4126 22.1171 16.5114 23.1333 14.4416 23.545C12.3718 23.9567 10.2265 23.7454 8.27678 22.9378C6.32709 22.1302 4.66066 20.7626 3.48822 19.0079C2.31579 17.2533 1.69001 15.1903 1.69001 13.08C1.69529 10.2518 2.82115 7.54088 4.82102 5.54102C6.82089 3.54115 9.53177 2.41529 12.36 2.41ZM12.36 0.720001C9.91543 0.720001 7.52575 1.44491 5.49316 2.80304C3.46057 4.16117 1.87635 6.09154 0.940854 8.35004C0.00535452 10.6085 -0.239414 13.0937 0.2375 15.4913C0.714413 17.8889 1.89159 20.0913 3.62017 21.8198C5.34874 23.5484 7.55108 24.7256 9.94869 25.2025C12.3463 25.6794 14.8315 25.4347 17.09 24.4992C19.3485 23.5637 21.2788 21.9794 22.637 19.9469C23.9951 17.9143 24.72 15.5246 24.72 13.08C24.72 11.4569 24.4003 9.84962 23.7792 8.35004C23.158 6.85045 22.2476 5.4879 21.0998 4.34016C19.9521 3.19243 18.5896 2.28201 17.09 1.66086C15.5904 1.03971 13.9831 0.720001 12.36 0.720001Z" fill="black"/>
<path d="M18.9396 9.85C18.8731 8.99856 18.4958 8.2013 17.8796 7.61C17.2321 6.98933 16.3762 6.63272 15.4796 6.61C13.3206 6.48186 11.1553 6.50525 8.99955 6.68001C8.32396 6.76116 7.68979 7.04855 7.1834 7.50305C6.677 7.95755 6.32299 8.55708 6.16956 9.22C5.90139 11.6615 5.87794 14.1238 6.09956 16.57C6.18198 17.2625 6.4804 17.9115 6.95249 18.4249C7.42457 18.9383 8.04633 19.2899 8.72956 19.43C11.1397 19.667 13.5664 19.6837 15.9796 19.48C16.672 19.3987 17.3215 19.1021 17.8364 18.6321C18.3513 18.162 18.7057 17.5422 18.8496 16.86C19.077 14.53 19.1071 12.185 18.9396 9.85ZM17.7296 16.39C17.678 16.9165 17.4402 17.4073 17.0588 17.774C16.6775 18.1407 16.1777 18.3591 15.6496 18.39C13.4009 18.5523 11.1424 18.5188 8.89955 18.29C8.46956 18.1887 8.0817 17.9563 7.78966 17.6248C7.49762 17.2934 7.31586 16.8793 7.26956 16.44C7.09936 14.24 7.09936 12.03 7.26956 9.83C7.3168 9.30358 7.55199 8.81175 7.93209 8.4445C8.3122 8.07725 8.81182 7.85912 9.33956 7.83C11.4869 7.67993 13.6422 7.67993 15.7896 7.83C16.3177 7.88182 16.8098 8.12112 17.1767 8.50453C17.5436 8.88794 17.761 9.39009 17.7896 9.92C17.9179 12.0756 17.8945 14.2376 17.7196 16.39H17.7296ZM12.4996 9.75C11.835 9.75 11.1854 9.94706 10.6328 10.3163C10.0803 10.6855 9.64963 11.2102 9.39532 11.8242C9.14101 12.4381 9.07447 13.1137 9.20412 13.7655C9.33377 14.4173 9.65377 15.016 10.1237 15.4859C10.5936 15.9558 11.1923 16.2758 11.844 16.4054C12.4958 16.5351 13.1714 16.4685 13.7854 16.2142C14.3993 15.9599 14.9241 15.5293 15.2933 14.9767C15.6625 14.4242 15.8596 13.7745 15.8596 13.11C15.8596 12.6679 15.7723 12.2302 15.6028 11.8219C15.4334 11.4136 15.185 11.0427 14.8719 10.7306C14.5588 10.4184 14.1873 10.1712 13.7784 10.0029C13.3696 9.83463 12.9316 9.74868 12.4896 9.75H12.4996ZM12.4996 15.28C11.9482 15.2426 11.4316 14.9972 11.0543 14.5934C10.677 14.1896 10.4671 13.6576 10.4671 13.105C10.4671 12.5524 10.677 12.0204 11.0543 11.6166C11.4316 11.2128 11.9482 10.9674 12.4996 10.93C13.0509 10.9674 13.5675 11.2128 13.9448 11.6166C14.3221 12.0204 14.532 12.5524 14.532 13.105C14.532 13.6576 14.3221 14.1896 13.9448 14.5934C13.5675 14.9972 13.0509 15.2426 12.4996 15.28ZM16.7896 9.62001C16.7909 9.72328 16.7717 9.82578 16.7331 9.92157C16.6945 10.0174 16.6372 10.1045 16.5647 10.178C16.4921 10.2515 16.4057 10.3099 16.3104 10.3497C16.2151 10.3895 16.1128 10.41 16.0096 10.41C15.8 10.41 15.5991 10.3268 15.4509 10.1786C15.3028 10.0305 15.2196 9.82953 15.2196 9.62001C15.2195 9.51673 15.24 9.41447 15.2799 9.31918C15.3197 9.22389 15.378 9.13746 15.4515 9.06489C15.525 8.99233 15.6122 8.93509 15.708 8.89648C15.8038 8.85788 15.9063 8.83869 16.0096 8.84001C16.212 8.84525 16.4043 8.93005 16.5447 9.07605C16.685 9.22205 16.7623 9.41749 16.7596 9.62001H16.7896Z" fill="black"/>
<path d="M18.9396 9.85C18.8731 8.99856 18.4958 8.2013 17.8796 7.61C17.2321 6.98933 16.3762 6.63272 15.4796 6.61C13.3206 6.48186 11.1553 6.50525 8.99955 6.68001C8.32396 6.76116 7.68979 7.04855 7.1834 7.50305C6.677 7.95755 6.32299 8.55708 6.16956 9.22C5.90139 11.6615 5.87794 14.1238 6.09956 16.57C6.18198 17.2625 6.4804 17.9115 6.95249 18.4249C7.42457 18.9383 8.04633 19.2899 8.72956 19.43C11.1397 19.667 13.5664 19.6837 15.9796 19.48C16.672 19.3987 17.3215 19.1021 17.8364 18.6321C18.3513 18.162 18.7057 17.5422 18.8496 16.86C19.077 14.53 19.1071 12.185 18.9396 9.85ZM17.7296 16.39C17.678 16.9165 17.4402 17.4073 17.0588 17.774C16.6775 18.1407 16.1777 18.3591 15.6496 18.39C13.4009 18.5523 11.1424 18.5188 8.89955 18.29C8.46956 18.1887 8.0817 17.9563 7.78966 17.6248C7.49762 17.2934 7.31586 16.8793 7.26956 16.44C7.09936 14.24 7.09936 12.03 7.26956 9.83C7.3168 9.30358 7.55199 8.81175 7.93209 8.4445C8.3122 8.07725 8.81182 7.85912 9.33956 7.83C11.4869 7.67993 13.6422 7.67993 15.7896 7.83C16.3177 7.88182 16.8098 8.12112 17.1767 8.50453C17.5436 8.88794 17.761 9.39009 17.7896 9.92C17.9179 12.0756 17.8945 14.2376 17.7196 16.39H17.7296ZM12.4996 9.75C11.835 9.75 11.1854 9.94706 10.6328 10.3163C10.0803 10.6855 9.64963 11.2102 9.39532 11.8242C9.14101 12.4381 9.07447 13.1137 9.20412 13.7655C9.33377 14.4173 9.65377 15.016 10.1237 15.4859C10.5936 15.9558 11.1923 16.2758 11.844 16.4054C12.4958 16.5351 13.1714 16.4685 13.7854 16.2142C14.3993 15.9599 14.9241 15.5293 15.2933 14.9767C15.6625 14.4242 15.8596 13.7745 15.8596 13.11C15.8596 12.6679 15.7723 12.2302 15.6028 11.8219C15.4334 11.4136 15.185 11.0427 14.8719 10.7306C14.5588 10.4184 14.1873 10.1712 13.7784 10.0029C13.3696 9.83463 12.9316 9.74868 12.4896 9.75H12.4996ZM12.4996 15.28C11.9482 15.2426 11.4316 14.9972 11.0543 14.5934C10.677 14.1896 10.4671 13.6576 10.4671 13.105C10.4671 12.5524 10.677 12.0204 11.0543 11.6166C11.4316 11.2128 11.9482 10.9674 12.4996 10.93C13.0509 10.9674 13.5675 11.2128 13.9448 11.6166C14.3221 12.0204 14.532 12.5524 14.532 13.105C14.532 13.6576 14.3221 14.1896 13.9448 14.5934C13.5675 14.9972 13.0509 15.2426 12.4996 15.28ZM16.7896 9.62001C16.7909 9.72328 16.7717 9.82578 16.7331 9.92157C16.6945 10.0174 16.6372 10.1045 16.5647 10.178C16.4921 10.2515 16.4057 10.3099 16.3104 10.3497C16.2151 10.3895 16.1128 10.41 16.0096 10.41C15.8 10.41 15.5991 10.3268 15.4509 10.1786C15.3028 10.0305 15.2196 9.82953 15.2196 9.62001C15.2195 9.51673 15.24 9.41447 15.2799 9.31918C15.3197 9.22389 15.378 9.13746 15.4515 9.06489C15.525 8.99233 15.6122 8.93509 15.708 8.89648C15.8038 8.85788 15.9063 8.83869 16.0096 8.84001C16.212 8.84525 16.4043 8.93005 16.5447 9.07605C16.685 9.22205 16.7623 9.41749 16.7596 9.62001H16.7896Z" fill="black"/>
</g>
</g>
<defs>
<clipPath id="clip0_668_2029">
<rect width="25" height="25" fill="white" transform="translate(0 0.720001)"/>
</clipPath>
<clipPath id="clip1_668_2029">
<rect width="24.72" height="24.72" fill="white" transform="translate(0 0.720001)"/>
</clipPath>
</defs>
</svg>
