<svg width="37" height="36" viewBox="0 0 37 36" fill="none" xmlns="http://www.w3.org/2000/svg">
<path d="M18.36 35.0203C8.89999 35.0203 1.23999 27.3503 1.23999 17.9003C1.23999 8.44027 8.90999 0.780273 18.36 0.780273C27.82 0.780273 35.48 8.45027 35.48 17.9003C35.48 27.3603 27.81 35.0203 18.36 35.0203Z" stroke="#666666" stroke-width="1.5" stroke-miterlimit="10"/>
<path d="M18.3601 9.01025C20.2712 9.01025 20.9236 9.01591 21.5466 9.03955L22.2058 9.06982C23.1584 9.11748 23.7861 9.26786 24.3318 9.47705V9.47607C24.8835 9.69363 25.3521 9.97883 25.8171 10.4438C26.2263 10.853 26.4944 11.2561 26.7 11.7251L26.7839 11.9312L26.7859 11.936C27.001 12.4738 27.1433 13.0972 27.1912 14.0552C27.2405 15.0422 27.2507 15.3521 27.2507 17.8999C27.2507 20.448 27.2405 20.7585 27.1912 21.7456C27.1436 22.6961 26.9934 23.3228 26.7849 23.8677C26.5672 24.4209 26.2831 24.8909 25.8171 25.3569C25.4078 25.7663 25.0042 26.0341 24.5349 26.2397L24.3298 26.3237L24.325 26.3257C23.7872 26.5408 23.1637 26.683 22.2058 26.731C21.2187 26.7803 20.9082 26.7905 18.3601 26.7905C15.8123 26.7905 15.5024 26.7803 14.5154 26.731C13.5643 26.6834 12.9374 26.5333 12.3923 26.3247H12.3933C11.84 26.107 11.3701 25.8229 10.9041 25.3569C10.4363 24.8892 10.1528 24.4289 9.93628 23.8696H9.93726L9.93433 23.8647L9.85718 23.6587C9.7098 23.2363 9.6058 22.7481 9.55249 22.0894L9.53003 21.7456C9.48067 20.7585 9.47046 20.448 9.47046 17.8999C9.47046 15.9893 9.47612 15.3373 9.49976 14.7144L9.53003 14.0552C9.57767 13.1024 9.72805 12.475 9.93726 11.9292L9.93628 11.9282C10.1538 11.3767 10.4392 10.9087 10.9041 10.4438C11.3718 9.97614 11.8321 9.69257 12.3914 9.47607V9.47705L12.3962 9.47412C12.8668 9.28592 13.4031 9.15445 14.1716 9.09229L14.5154 9.06982C15.5024 9.02047 15.8123 9.01025 18.3601 9.01025ZM18.3601 9.70068C16.4868 9.70068 15.8427 9.6998 15.2136 9.72119L14.5457 9.75049C13.8247 9.78238 13.3328 9.8809 12.9705 9.9917L12.6472 10.105C12.1454 10.2992 11.7768 10.537 11.3972 10.9165C11.0644 11.2493 10.84 11.5738 10.6589 11.9868L10.5837 12.1704C10.4336 12.5524 10.2737 13.0959 10.2312 14.0649C10.1805 15.0698 10.1804 15.3829 10.1804 17.8804C10.1804 19.7536 10.1805 20.3978 10.2019 21.0269L10.2312 21.6958C10.2736 22.6535 10.4334 23.2067 10.5837 23.5894V23.5903C10.7783 24.0938 11.0168 24.4638 11.3972 24.8442C11.7767 25.2237 12.1456 25.4606 12.6472 25.6548V25.6558C13.0298 25.8065 13.5745 25.9679 14.5486 26.0103V26.0093C15.5507 26.0599 15.8657 26.0601 18.3601 26.0601C20.2372 26.0601 20.8799 26.0545 21.5056 26.0347L22.1707 26.0103H22.1726C23.1359 25.9679 23.6908 25.8067 24.074 25.6558L24.073 25.6548C24.575 25.4605 24.9443 25.2239 25.324 24.8442C25.7037 24.4645 25.9412 24.0952 26.1355 23.5933C26.286 23.2112 26.4474 22.6675 26.49 21.6958C26.5407 20.691 26.5408 20.3778 26.5408 17.8804C26.5408 16.003 26.5352 15.3607 26.5154 14.7349L26.49 14.0698V14.0679L26.4685 13.7261C26.4248 13.1856 26.3412 12.7931 26.2488 12.4907L26.1355 12.1675C25.9412 11.6654 25.7038 11.2963 25.324 10.9165C24.9442 10.5367 24.5752 10.2993 24.073 10.105H24.074C23.6917 9.95438 23.1473 9.79301 22.1746 9.75049H22.1755C21.1708 9.69975 20.8675 9.70068 18.3601 9.70068Z" fill="white" stroke="#666666"/>
<path d="M18.3608 13.0703C15.7008 13.0703 13.5408 15.2303 13.5408 17.8903C13.5408 20.5503 15.7008 22.7103 18.3608 22.7103C21.0208 22.7103 23.1808 20.5503 23.1808 17.8903C23.1808 15.2303 21.0208 13.0703 18.3608 13.0703ZM18.3608 21.0203C16.6308 21.0203 15.2308 19.6203 15.2308 17.8903C15.2308 16.1603 16.6308 14.7603 18.3608 14.7603C20.0908 14.7603 21.4908 16.1603 21.4908 17.8903C21.4908 19.6203 20.0908 21.0203 18.3608 21.0203Z" fill="#666666"/>
<path d="M24.5 12.8805C24.5 13.5005 24 14.0105 23.37 14.0105C22.74 14.0105 22.24 13.5105 22.24 12.8805C22.24 12.2505 22.74 11.7505 23.37 11.7505C24 11.7505 24.5 12.2505 24.5 12.8805Z" fill="#666666"/>
</svg>
