<svg width="240" height="240" viewBox="0 0 240 240" fill="none" xmlns="http://www.w3.org/2000/svg">
<path d="M140.808 195H70.9236C64.3439 194.994 59.0064 189.656 59 183.076L59.0064 56.9236C59.0127 50.3439 64.3439 45.0127 70.9236 45H140.808C147.388 45.0064 152.726 50.3439 152.732 56.9236V125.268C152.732 126.586 151.662 127.656 150.344 127.656C149.025 127.656 147.955 126.586 147.955 125.268V56.9236C147.949 52.9809 144.751 49.7835 140.809 49.7771H70.9238C66.981 49.7835 63.79 52.9809 63.7773 56.9236V183.076C63.7836 187.019 66.981 190.217 70.9238 190.223H140.809C144.751 190.217 147.949 187.019 147.955 183.076V160.689C147.955 159.37 149.025 158.3 150.344 158.3C151.662 158.3 152.732 159.37 152.732 160.689V183.076C152.726 189.656 147.388 194.994 140.808 195Z" fill="black"/>
<path d="M115.459 60.3243H96.274C94.9492 60.3243 93.8791 59.2543 93.8791 57.9359C93.8791 56.6175 94.9491 55.5474 96.274 55.5474H115.466H115.46C116.784 55.5474 117.848 56.6175 117.848 57.9359C117.848 59.2543 116.784 60.3243 115.459 60.3243Z" fill="black"/>
<path d="M150.338 70.8725H61.3885C60.07 70.8725 59 69.8025 59 68.4841C59 67.1656 60.0701 66.0956 61.3885 66.0956H150.338C151.657 66.0956 152.727 67.1656 152.727 68.4841C152.727 69.8025 151.656 70.8725 150.338 70.8725Z" fill="black"/>
<path d="M150.338 173.905H61.3885C60.07 173.905 59 172.835 59 171.517C59 170.198 60.0701 169.128 61.3885 169.128H150.338C151.657 169.128 152.727 170.198 152.727 171.517C152.727 172.835 151.656 173.905 150.338 173.905Z" fill="black"/>
<path d="M148.809 153.694C147.822 153.694 146.93 153.083 146.58 152.153L140.223 135.503C139.968 134.904 139.968 134.229 140.223 133.63C140.471 133.032 140.962 132.56 141.567 132.331C142.179 132.095 142.854 132.121 143.44 132.401C144.026 132.675 144.478 133.185 144.682 133.796L151.051 150.446V150.452C151.522 151.688 150.905 153.064 149.675 153.535C149.395 153.643 149.102 153.694 148.809 153.694Z" fill="black"/>
<path d="M134.949 153.695C134.459 153.695 133.975 153.542 133.573 153.249L121.854 144.917V144.924C121.223 144.478 120.847 143.752 120.847 142.981C120.847 142.204 121.223 141.478 121.854 141.032L133.573 132.701V132.707C134.643 132.026 136.064 132.306 136.796 133.344C137.529 134.382 137.325 135.809 136.325 136.599L127.344 142.968L136.325 149.338C137.172 149.936 137.535 151.019 137.217 152.013C136.905 153.006 135.981 153.675 134.937 153.675L134.949 153.695Z" fill="black"/>
<path d="M156.313 153.694C155.275 153.694 154.352 153.026 154.033 152.032C153.715 151.038 154.078 149.956 154.925 149.357L163.906 142.988L154.925 136.618C154.409 136.249 154.065 135.695 153.957 135.07C153.849 134.446 153.995 133.803 154.364 133.287C155.129 132.21 156.619 131.962 157.696 132.726L169.415 141.019C170.046 141.465 170.422 142.191 170.422 142.968C170.422 143.739 170.046 144.465 169.415 144.911L157.696 153.242V153.236C157.294 153.529 156.81 153.688 156.313 153.694Z" fill="black"/>
<path d="M178.77 163.077H112.491C111.166 163.077 110.096 162.007 110.096 160.688V125.267C110.096 123.949 111.166 122.879 112.491 122.879H178.77C179.407 122.879 180.012 123.134 180.465 123.579C180.91 124.025 181.165 124.637 181.165 125.267V160.688C181.165 161.319 180.91 161.93 180.465 162.376C180.012 162.822 179.407 163.077 178.77 163.077ZM114.871 158.3H176.388V127.643H114.871V158.3Z" fill="black"/>
<path d="M88.4132 124.051C88.2476 124.051 88.0884 124.031 87.9355 124.006C84.9356 123.394 82.0884 122.21 79.5406 120.528C78.9801 120.152 78.598 119.56 78.496 118.891C78.3941 118.223 78.5852 117.547 79.012 117.025C79.6553 116.235 79.598 115.089 78.8782 114.369C78.1585 113.649 77.012 113.592 76.2285 114.242C75.6999 114.662 75.0247 114.853 74.356 114.751C73.6872 114.649 73.0948 114.267 72.7254 113.707C71.0374 111.159 69.8528 108.312 69.2414 105.318H69.2477C69.1076 104.649 69.2541 103.961 69.6617 103.414C70.063 102.866 70.6745 102.516 71.3497 102.452C72.3624 102.35 73.1332 101.496 73.1332 100.484C73.1332 99.4646 72.3625 98.6112 71.3497 98.5156C70.6746 98.4456 70.0567 98.0953 69.6554 97.5475C69.2541 97.0061 69.1076 96.3118 69.2477 95.6493C69.8528 92.6494 71.0313 89.8022 72.7191 87.2545H72.7254C73.0949 86.694 73.6872 86.3118 74.356 86.2099C75.0248 86.108 75.7 86.2991 76.2286 86.7258C77.012 87.3691 78.1585 87.3118 78.8783 86.5921C79.598 85.8723 79.6553 84.7259 79.012 83.9424C78.5789 83.4137 78.3942 82.7386 78.4961 82.0698C78.598 81.401 78.9802 80.8087 79.5407 80.4392C82.0884 78.7449 84.9356 77.5667 87.9355 76.9616C88.5979 76.8214 89.2858 76.9679 89.8337 77.3692C90.3815 77.7705 90.7318 78.3883 90.7955 79.0635C90.8974 80.0699 91.7509 80.8471 92.7699 80.8471C93.7827 80.8471 94.6361 80.07 94.7317 79.0635H94.738C94.8017 78.382 95.1521 77.7705 95.6998 77.3692C96.2476 76.9679 96.9355 76.8214 97.6043 76.9616C100.598 77.5666 103.445 78.7451 105.993 80.4392C106.553 80.8087 106.936 81.401 107.037 82.0698C107.139 82.7386 106.955 83.4138 106.528 83.9424C105.878 84.7258 105.936 85.8723 106.655 86.5921C107.375 87.3118 108.521 87.3691 109.305 86.7258C109.834 86.2927 110.509 86.108 111.177 86.2099C111.846 86.3118 112.439 86.694 112.808 87.2545C114.49 89.8086 115.662 92.6685 116.26 95.6686C116.4 96.331 116.254 97.0189 115.853 97.5667C115.451 98.1145 114.834 98.4648 114.158 98.5349C113.146 98.6304 112.375 99.4839 112.375 100.497C112.375 101.516 113.146 102.369 114.158 102.471C114.834 102.535 115.445 102.885 115.846 103.433C116.248 103.981 116.4 104.669 116.26 105.337C115.649 108.331 114.47 111.178 112.783 113.726C112.413 114.286 111.814 114.669 111.152 114.77C110.483 114.872 109.802 114.688 109.28 114.255C108.496 113.611 107.343 113.669 106.623 114.388C105.91 115.108 105.853 116.254 106.496 117.038C106.923 117.567 107.108 118.242 107.006 118.911C106.904 119.579 106.528 120.172 105.967 120.541C103.413 122.229 100.566 123.414 97.5726 124.019V124.025C96.9101 124.159 96.2159 124.012 95.668 123.611C95.1203 123.21 94.7699 122.592 94.7063 121.917C94.5789 120.93 93.7445 120.191 92.7445 120.184C91.7509 120.184 90.9101 120.923 90.7828 121.91C90.6617 123.133 89.6299 124.063 88.4007 124.063L88.4132 124.051ZM83.9865 117.598H83.9801C84.9037 118.076 85.8654 118.471 86.8464 118.789C88.0502 116.662 90.2986 115.35 92.7445 115.35C95.184 115.35 97.4324 116.662 98.6299 118.789C99.6172 118.471 100.579 118.076 101.496 117.598C100.846 115.248 101.509 112.719 103.235 110.993C104.961 109.267 107.483 108.605 109.84 109.261C110.311 108.337 110.713 107.375 111.031 106.394C108.904 105.191 107.592 102.942 107.592 100.503C107.592 98.0568 108.904 95.8084 111.031 94.6109C110.713 93.6237 110.311 92.6619 109.84 91.7447C107.483 92.388 104.961 91.7192 103.241 89.9868C101.515 88.2543 100.866 85.7256 101.528 83.3753C100.604 82.904 99.649 82.5027 98.6617 82.1842C97.4642 84.3116 95.2094 85.6237 92.7699 85.6237C90.3304 85.6237 88.0757 84.3116 86.8782 82.1842C85.8909 82.5027 84.9355 82.904 84.0119 83.3753C84.668 85.7256 84.0056 88.2543 82.2794 89.9804C80.5533 91.7129 78.031 92.3754 75.6743 91.7193C75.1966 92.6365 74.8017 93.5982 74.4832 94.5855C76.6043 95.783 77.9164 98.0378 77.9164 100.471C77.9164 102.91 76.6043 105.165 74.4832 106.369C74.8017 107.35 75.203 108.312 75.6743 109.235C78.031 108.573 80.5533 109.235 82.2794 110.968C84.0119 112.694 84.6744 115.216 84.0183 117.567L83.9865 117.598Z" fill="black"/>
<path d="M92.7569 112.229C88.0116 112.229 83.725 109.369 81.9099 104.98C80.0945 100.592 81.0946 95.5473 84.4513 92.1842C87.808 88.8275 92.8588 87.8275 97.2475 89.6428C101.63 91.4581 104.49 95.7384 104.49 100.49V100.483C104.49 106.968 99.2346 112.216 92.7569 112.229ZM92.7569 93.5278C89.9416 93.5214 87.4002 95.2158 86.3238 97.8208C85.2474 100.42 85.8397 103.413 87.827 105.407C89.8207 107.4 92.8143 107.993 95.4193 106.916C98.0181 105.84 99.7123 103.305 99.7123 100.483C99.7123 96.6423 96.5976 93.5278 92.7569 93.5278Z" fill="black"/>
</svg>
