<svg xmlns="http://www.w3.org/2000/svg" width="25" height="26" viewBox="0 0 25 26" fill="none">
  <g clip-path="url(#clip0_773_3795)">
    <path d="M12.36 2.40997C14.4703 2.40997 16.5333 3.03576 18.2879 4.20819C20.0426 5.38063 21.4102 7.04705 22.2178 8.99673C23.0254 10.9464 23.2367 13.0918 22.825 15.1616C22.4133 17.2314 21.3971 19.1326 19.9048 20.6248C18.4126 22.117 16.5114 23.1332 14.4416 23.545C12.3718 23.9567 10.2265 23.7453 8.27678 22.9378C6.32709 22.1302 4.66065 20.7626 3.48822 19.0079C2.31578 17.2532 1.69 15.1903 1.69 13.08C1.69265 10.2509 2.81766 7.5385 4.8181 5.53806C6.81854 3.53762 9.53095 2.41262 12.36 2.40997ZM12.36 0.719971C9.91542 0.719971 7.52575 1.44487 5.49316 2.80301C3.46057 4.16114 1.87635 6.09151 0.940854 8.35001C0.00535452 10.6085 -0.239414 13.0937 0.2375 15.4913C0.714413 17.8889 1.89158 20.0912 3.62016 21.8198C5.34874 23.5484 7.55108 24.7256 9.94868 25.2025C12.3463 25.6794 14.8315 25.4346 17.09 24.4991C19.3485 23.5636 21.2788 21.9794 22.637 19.9468C23.9951 17.9142 24.72 15.5245 24.72 13.08C24.72 9.8019 23.4178 6.65808 21.0998 4.34013C18.7819 2.02218 15.6381 0.719971 12.36 0.719971Z" fill="black"/>
    <path d="M7.06914 10.49H9.57913V18.55H7.06914V10.49ZM8.32913 6.48999C8.61789 6.48999 8.90018 6.57561 9.14027 6.73604C9.38037 6.89647 9.56749 7.12449 9.67799 7.39127C9.7885 7.65805 9.81741 7.95161 9.76108 8.23482C9.70474 8.51803 9.5657 8.77818 9.36151 8.98236C9.15733 9.18655 8.89718 9.32559 8.61397 9.38193C8.33076 9.43826 8.0372 9.40935 7.77042 9.29884C7.50364 9.18834 7.27562 9.0012 7.11519 8.76111C6.95476 8.52101 6.86914 8.23874 6.86914 7.94998C6.86914 7.56277 7.02295 7.19141 7.29675 6.9176C7.57056 6.6438 7.94192 6.48999 8.32913 6.48999Z" fill="black"/>
    <path d="M11.1494 10.49H13.5594V11.59C13.7998 11.1791 14.1472 10.8412 14.5646 10.6122C14.982 10.3833 15.4537 10.2719 15.9294 10.29C18.4694 10.29 18.9294 11.96 18.9294 14.13V18.55H16.4194V14.67C16.4194 13.74 16.4194 12.53 15.1194 12.53C13.8194 12.53 13.6194 13.53 13.6194 14.6V18.6H11.1094L11.1494 10.49Z" fill="black"/>
  </g>
  <defs>
    <clipPath id="clip0_773_3795">
      <rect width="24.72" height="24.72" fill="white" transform="translate(0 0.719971)"/>
    </clipPath>
  </defs>
</svg>