<svg width="240" height="240" viewBox="0 0 240 240" fill="none" xmlns="http://www.w3.org/2000/svg">
<path fill-rule="evenodd" clip-rule="evenodd" d="M80.3599 66.3833V54.8433C80.3661 52.2346 81.4051 49.7345 83.2497 47.8899C85.0944 46.0452 87.5945 45.0062 90.2032 45H149.793C152.402 45.0062 154.902 46.0452 156.747 47.8899C158.591 49.7345 159.63 52.2346 159.637 54.8433V70.8683H190.008C191.331 70.871 192.599 71.3976 193.534 72.3328C194.469 73.268 194.996 74.5357 194.998 75.8583V101.805C194.998 103.129 194.473 104.4 193.537 105.337C192.602 106.274 191.333 106.802 190.008 106.805H159.637V129.738H180.278C184.179 129.748 187.917 131.302 190.676 134.06C193.434 136.818 194.988 140.556 194.998 144.457V154.253C194.988 157.754 193.736 161.137 191.463 163.799C189.191 166.461 186.047 168.23 182.592 168.79C183.111 171.14 184.227 173.318 185.832 175.112C186.085 175.395 186.253 175.744 186.315 176.119C186.377 176.495 186.331 176.88 186.182 177.229C186.033 177.579 185.788 177.879 185.475 178.095C185.161 178.31 184.793 178.431 184.413 178.445C178.167 178.593 173.392 174.457 171.183 168.968H159.637V185.152C159.632 187.761 158.593 190.263 156.748 192.108C154.904 193.954 152.403 194.994 149.793 195H90.2032C87.5945 194.994 85.0944 193.955 83.2497 192.11C81.4051 190.266 80.3661 187.765 80.3599 185.157V173.367C76.3922 174.837 72.1278 175.327 67.9301 174.793C63.7325 174.259 59.7262 172.718 56.2528 170.301C52.7795 167.885 49.9421 164.664 47.9827 160.913C46.0233 157.163 45 152.994 45 148.762C45 144.531 46.0233 140.362 47.9827 136.612C49.9421 132.861 52.7795 129.64 56.2528 127.224C59.7262 124.807 63.7325 123.266 67.9301 122.732C72.1278 122.198 76.3922 122.688 80.3599 124.158V115.592C76.3922 117.062 72.1278 117.552 67.9301 117.018C63.7325 116.484 59.7262 114.943 56.2528 112.526C52.7795 110.11 49.9421 106.889 47.9827 103.138C46.0233 99.3876 45 95.2189 45 90.9875C45 86.756 46.0233 82.5874 47.9827 78.8369C49.9421 75.0864 52.7795 71.8655 56.2528 69.4487C59.7262 67.0318 63.7325 65.4908 67.9301 64.9571C72.1278 64.4233 76.3922 64.9127 80.3599 66.3833ZM151.405 74.8617L168.738 86.4267L185.47 74.8617H151.405ZM191.005 75.8733L169.913 90.455C169.584 90.6887 169.192 90.8168 168.789 90.8221C168.385 90.8275 167.99 90.7099 167.655 90.485L146.52 76.385V101.805C146.52 102.07 146.625 102.325 146.813 102.512C147 102.7 147.255 102.805 147.52 102.805H190.02C190.285 102.805 190.539 102.7 190.727 102.512C190.915 102.325 191.02 102.07 191.02 101.805V75.8733H191.005ZM155.645 70.8733V66.6783H84.3516V68.2617C88.3382 70.5669 91.6483 73.8803 93.9495 77.8693C96.2508 81.8582 97.4622 86.3823 97.4622 90.9875C97.4622 95.5927 96.2508 100.117 93.9495 104.106C91.6483 108.095 88.3382 111.408 84.3516 113.713V126.037C88.3382 128.342 91.6483 131.655 93.9495 135.644C96.2508 139.633 97.4622 144.157 97.4622 148.762C97.4622 153.368 96.2508 157.892 93.9495 161.881C91.6483 165.87 88.3382 169.183 84.3516 171.488V174.322H155.645V168.885C152.044 168.481 148.717 166.767 146.298 164.069C143.879 161.37 142.537 157.877 142.527 154.253V144.457C142.539 140.834 143.882 137.343 146.301 134.647C148.72 131.95 152.045 130.237 155.645 129.833V106.797H147.517C146.192 106.794 144.923 106.266 143.987 105.329C143.052 104.391 142.527 103.121 142.527 101.797V75.8583C142.529 74.5357 143.056 73.268 143.991 72.3328C144.926 71.3976 146.194 70.871 147.517 70.8683L155.645 70.8733ZM182.055 147.298C181.396 147.298 180.751 147.494 180.203 147.86C179.655 148.226 179.228 148.747 178.975 149.356C178.723 149.965 178.657 150.635 178.786 151.282C178.914 151.929 179.232 152.523 179.698 152.989C180.164 153.455 180.758 153.772 181.405 153.901C182.051 154.03 182.721 153.964 183.331 153.711C183.94 153.459 184.46 153.032 184.826 152.484C185.193 151.935 185.388 151.291 185.388 150.632C185.388 149.748 185.037 148.9 184.412 148.275C183.787 147.65 182.939 147.298 182.055 147.298ZM169.115 147.298C168.456 147.298 167.811 147.494 167.263 147.86C166.715 148.226 166.288 148.747 166.035 149.356C165.783 149.965 165.717 150.635 165.846 151.282C165.974 151.929 166.292 152.523 166.758 152.989C167.224 153.455 167.818 153.772 168.465 153.901C169.111 154.03 169.781 153.964 170.391 153.711C171 153.459 171.52 153.032 171.886 152.484C172.253 151.935 172.448 151.291 172.448 150.632C172.448 149.748 172.097 148.9 171.472 148.275C170.847 147.65 169.999 147.298 169.115 147.298ZM156.175 147.298C155.516 147.298 154.871 147.494 154.323 147.86C153.775 148.226 153.348 148.747 153.095 149.356C152.843 149.965 152.777 150.635 152.906 151.282C153.034 151.929 153.352 152.523 153.818 152.989C154.284 153.455 154.878 153.772 155.525 153.901C156.171 154.03 156.841 153.964 157.451 153.711C158.06 153.459 158.58 153.032 158.946 152.484C159.313 151.935 159.508 151.291 159.508 150.632C159.508 149.748 159.157 148.9 158.532 148.275C157.907 147.65 157.059 147.298 156.175 147.298ZM157.628 164.98H172.578C173.029 164.981 173.467 165.134 173.82 165.415C174.173 165.695 174.421 166.087 174.523 166.527C175.226 168.843 176.586 170.905 178.438 172.463C178.928 172.86 179.457 173.205 180.017 173.495C179.091 171.498 178.51 169.358 178.298 167.167C178.273 166.891 178.305 166.612 178.392 166.349C178.48 166.086 178.621 165.844 178.808 165.639C178.994 165.433 179.221 165.269 179.474 165.156C179.727 165.042 180.001 164.983 180.278 164.982C183.119 164.97 185.841 163.836 187.849 161.826C189.857 159.817 190.989 157.094 190.998 154.253V144.457C190.989 141.615 189.855 138.892 187.846 136.882C185.836 134.873 183.113 133.74 180.272 133.73H157.247C154.405 133.74 151.682 134.873 149.672 136.882C147.663 138.892 146.53 141.615 146.52 144.457V154.253C146.53 157.095 147.663 159.818 149.672 161.828C151.682 163.837 154.405 164.97 157.247 164.98H157.628ZM86.9632 133.033C83.8523 129.922 79.8886 127.803 75.5734 126.945C71.2583 126.087 66.7855 126.527 62.7207 128.211C58.6559 129.894 55.1816 132.746 52.7373 136.404C50.2929 140.062 48.9882 144.363 48.9882 148.762C48.9882 153.162 50.2929 157.463 52.7373 161.121C55.1816 164.779 58.6559 167.631 62.7207 169.314C66.7855 170.998 71.2583 171.438 75.5734 170.58C79.8886 169.722 83.8523 167.603 86.9632 164.492C91.1339 160.32 93.4768 154.662 93.4768 148.762C93.4768 142.863 91.1339 137.205 86.9632 133.033ZM84.8132 150.5C85.1195 150.328 85.3748 150.078 85.5532 149.776C85.7315 149.473 85.8265 149.129 85.8286 148.777C85.8306 148.426 85.7396 148.081 85.5647 147.776C85.3899 147.472 85.1375 147.219 84.8332 147.043L74.9249 141.317L65.1282 135.667C64.8277 135.465 64.4781 135.348 64.1166 135.33C63.7551 135.311 63.3953 135.391 63.0756 135.56C62.7558 135.73 62.4882 135.983 62.3011 136.293C62.114 136.603 62.0145 136.958 62.0132 137.32V160.213C62.0157 160.562 62.1095 160.904 62.2851 161.206C62.4608 161.507 62.7122 161.757 63.0145 161.932C63.3167 162.106 63.6593 162.198 64.0082 162.199C64.3571 162.2 64.7001 162.109 65.0032 161.937L74.9199 156.212L84.8132 150.5ZM72.9366 152.768L79.8682 148.768L66.0066 140.768V156.768L72.9282 152.768H72.9366ZM86.9632 75.2683C83.8523 72.1572 79.8886 70.0384 75.5734 69.18C71.2583 68.3216 66.7855 68.762 62.7207 70.4457C58.6559 72.1293 55.1816 74.9805 52.7373 78.6387C50.2929 82.2969 48.9882 86.5978 48.9882 90.9975C48.9882 95.3972 50.2929 99.6981 52.7373 103.356C55.1816 107.014 58.6559 109.866 62.7207 111.549C66.7855 113.233 71.2583 113.673 75.5734 112.815C79.8886 111.957 83.8523 109.838 86.9632 106.727C91.1339 102.555 93.4768 96.8968 93.4768 90.9975C93.4768 85.0982 91.1339 79.4405 86.9632 75.2683ZM71.2332 81.5633C70.4995 80.6052 69.5461 79.8378 68.4533 79.3258C67.3606 78.8138 66.1606 78.5723 64.9549 78.6217C62.7604 78.6221 60.6558 79.4941 59.1041 81.0458C57.5523 82.5976 56.6803 84.7021 56.6799 86.8967C56.9404 90.8091 58.4607 94.5319 61.0132 97.5083C63.7272 100.917 66.6737 104.133 69.8316 107.135C70.2064 107.508 70.7136 107.717 71.2424 107.717C71.7712 107.717 72.2784 107.508 72.6532 107.135C75.8068 104.13 78.7488 100.911 81.4582 97.5C84.0108 94.5236 85.5311 90.8007 85.7916 86.8883C85.7911 84.6938 84.9192 82.5893 83.3674 81.0375C81.8156 79.4857 79.7111 78.6138 77.5166 78.6133C76.3106 78.5642 75.1106 78.8058 74.0176 79.3178C72.9246 79.8298 71.9708 80.5971 71.2366 81.555L71.2332 81.5633ZM75.0249 83.3333C74.1626 84.1389 73.4775 85.1152 73.0132 86.2C72.8476 86.5297 72.5936 86.8069 72.2796 87.0006C71.9656 87.1943 71.6039 87.2969 71.2349 87.2969C70.8659 87.2969 70.5042 87.1943 70.1902 87.0006C69.8762 86.8069 69.6222 86.5297 69.4566 86.2C68.2999 83.8867 67.3766 82.5967 64.9566 82.5967C63.8208 82.5975 62.7319 83.0491 61.9288 83.8522C61.1257 84.6553 60.6741 85.7443 60.6732 86.88C60.6732 92.395 67.1249 98.7583 71.2349 102.892C75.3466 98.7583 81.7982 92.3917 81.7982 86.88C81.7973 85.7443 81.3458 84.6553 80.5427 83.8522C79.7396 83.0491 78.6506 82.5975 77.5149 82.5967C76.625 82.5408 75.7439 82.8005 75.0266 83.33L75.0249 83.3333ZM118.107 121.942C118.549 120.712 118.559 119.368 118.133 118.132L124.06 113.247C125.169 113.997 126.507 114.334 127.839 114.198C129.171 114.063 130.413 113.463 131.349 112.505C132.284 111.546 132.852 110.29 132.955 108.954C133.058 107.619 132.688 106.29 131.911 105.2C131.133 104.11 129.998 103.327 128.702 102.989C127.406 102.651 126.033 102.779 124.822 103.351C123.611 103.923 122.639 104.902 122.077 106.117C121.514 107.333 121.397 108.707 121.745 110L115.603 115.06C114.738 114.557 113.756 114.291 112.756 114.286C111.755 114.282 110.771 114.541 109.902 115.037C109.033 115.533 108.309 116.248 107.803 117.111C107.297 117.974 107.027 118.955 107.019 119.956C107.012 120.956 107.267 121.941 107.759 122.812C108.252 123.683 108.964 124.409 109.826 124.918C110.687 125.427 111.667 125.701 112.667 125.713C113.668 125.724 114.654 125.473 115.527 124.983L121.802 129.805C121.409 131.086 121.48 132.464 122 133.698C122.52 134.932 123.458 135.944 124.649 136.558C125.84 137.171 127.208 137.346 128.515 137.053C129.822 136.76 130.985 136.017 131.799 134.953C132.614 133.89 133.029 132.574 132.973 131.236C132.916 129.898 132.391 128.622 131.489 127.632C130.587 126.641 129.366 125.999 128.039 125.818C126.712 125.636 125.363 125.926 124.228 126.638L118.107 121.935V121.942ZM113.95 118.783C113.709 118.543 113.403 118.379 113.069 118.313C112.736 118.247 112.39 118.281 112.076 118.411C111.761 118.541 111.493 118.762 111.304 119.045C111.115 119.327 111.014 119.66 111.014 120C111.014 120.34 111.115 120.673 111.304 120.955C111.493 121.238 111.761 121.459 112.076 121.589C112.39 121.719 112.736 121.753 113.069 121.687C113.403 121.621 113.709 121.457 113.95 121.217C114.272 120.894 114.453 120.456 114.453 120C114.453 119.544 114.272 119.106 113.95 118.783ZM128.478 130.268C128.238 130.028 127.931 129.864 127.598 129.797C127.264 129.731 126.918 129.765 126.604 129.895C126.289 130.025 126.021 130.246 125.832 130.528C125.643 130.811 125.542 131.144 125.542 131.484C125.542 131.824 125.643 132.157 125.832 132.44C126.021 132.723 126.289 132.943 126.604 133.073C126.918 133.203 127.264 133.237 127.598 133.171C127.931 133.105 128.238 132.941 128.478 132.7C128.8 132.377 128.981 131.94 128.981 131.484C128.981 131.028 128.8 130.591 128.478 130.268ZM128.478 107.3C128.238 107.059 127.931 106.895 127.598 106.829C127.264 106.763 126.918 106.797 126.604 106.927C126.289 107.057 126.021 107.277 125.832 107.56C125.643 107.843 125.542 108.176 125.542 108.516C125.542 108.856 125.643 109.189 125.832 109.472C126.021 109.754 126.289 109.975 126.604 110.105C126.918 110.235 127.264 110.269 127.598 110.203C127.931 110.136 128.238 109.972 128.478 109.732C128.8 109.409 128.981 108.972 128.981 108.516C128.981 108.06 128.8 107.623 128.478 107.3ZM119.998 93.5583C114.769 93.5583 109.656 95.1091 105.308 98.0146C100.96 100.92 97.5706 105.05 95.5693 109.881C93.568 114.713 93.0444 120.029 94.0646 125.159C95.0849 130.288 97.6032 134.999 101.301 138.697C104.999 142.395 109.711 144.913 114.84 145.934C119.969 146.954 125.285 146.43 130.117 144.429C134.949 142.428 139.078 139.039 141.984 134.69C144.889 130.342 146.44 125.23 146.44 120C146.44 112.987 143.654 106.262 138.695 101.303C133.737 96.3441 127.011 93.5583 119.998 93.5583ZM135.873 104.125C132.734 100.985 128.733 98.8469 124.378 97.9806C120.024 97.1143 115.51 97.5588 111.407 99.258C107.305 100.957 103.799 103.835 101.332 107.527C98.865 111.218 97.5483 115.559 97.5483 119.999C97.5483 124.439 98.865 128.78 101.332 132.472C103.799 136.164 107.305 139.041 111.407 140.74C115.51 142.44 120.024 142.884 124.378 142.018C128.733 141.151 132.734 139.013 135.873 135.873C140.083 131.663 142.448 125.953 142.448 119.999C142.448 114.045 140.083 108.335 135.873 104.125ZM128.165 178.322C129.575 180.135 130.34 182.367 130.34 184.664C130.34 186.961 129.575 189.193 128.165 191.007H149.793C151.343 191.001 152.828 190.383 153.924 189.287C155.02 188.191 155.639 186.707 155.645 185.157V178.323L128.165 178.322ZM111.832 191C110.422 189.186 109.656 186.955 109.656 184.658C109.656 182.36 110.422 180.129 111.832 178.315H84.3516V185.148C84.3577 186.698 84.9763 188.183 86.0724 189.279C87.1685 190.375 88.6533 190.993 90.2032 190.998L111.832 191ZM124.483 180.167C123.596 179.279 122.465 178.675 121.234 178.43C120.004 178.185 118.728 178.311 117.569 178.791C116.409 179.272 115.418 180.085 114.721 181.128C114.024 182.172 113.652 183.398 113.652 184.653C113.652 185.908 114.024 187.135 114.721 188.178C115.418 189.222 116.409 190.035 117.569 190.515C118.728 190.996 120.004 191.121 121.234 190.876C122.465 190.632 123.596 190.027 124.483 189.14C125.672 187.949 126.339 186.336 126.339 184.653C126.339 182.971 125.672 181.357 124.483 180.167ZM117.028 57.2667H122.968C123.475 57.2339 123.951 57.0094 124.298 56.6387C124.646 56.268 124.839 55.7789 124.839 55.2708C124.839 54.7627 124.646 54.2737 124.298 53.903C123.951 53.5323 123.475 53.3078 122.968 53.275H117.028C116.521 53.3078 116.046 53.5323 115.698 53.903C115.351 54.2737 115.157 54.7627 115.157 55.2708C115.157 55.7789 115.351 56.268 115.698 56.6387C116.046 57.0094 116.521 57.2339 117.028 57.2667ZM155.645 62.685V54.8517C155.639 53.3015 155.021 51.8164 153.925 50.7202C152.829 49.6241 151.343 49.0057 149.793 49H90.2032C88.6533 49.0057 87.1685 49.6238 86.0724 50.7196C84.9763 51.8154 84.3577 53.3001 84.3516 54.85V62.6917L155.645 62.685Z" fill="black"/>
</svg>
