<svg xmlns="http://www.w3.org/2000/svg" width="25" height="25" viewBox="0 0 25 25" fill="none">
  <g clip-path="url(#clip0_773_3761)">
    <path d="M12.36 1.69C14.4703 1.69 16.5333 2.31579 18.2879 3.48822C20.0426 4.66066 21.4102 6.32708 22.2178 8.27676C23.0254 10.2265 23.2367 12.3718 22.825 14.4416C22.4133 16.5114 21.3971 18.4126 19.9048 19.9048C18.4126 21.3971 16.5114 22.4133 14.4416 22.825C12.3718 23.2367 10.2265 23.0254 8.27677 22.2178C6.32709 21.4102 4.66066 20.0426 3.48823 18.2879C2.31579 16.5333 1.69001 14.4703 1.69001 12.36C1.69529 9.53176 2.82115 6.82088 4.82102 4.82101C6.82088 2.82115 9.53177 1.69529 12.36 1.69ZM12.36 0C9.91543 0 7.52575 0.724904 5.49316 2.08304C3.46057 3.44117 1.87635 5.37154 0.940855 7.63004C0.00535595 9.88853 -0.239414 12.3737 0.237499 14.7713C0.714413 17.1689 1.89159 19.3713 3.62017 21.0998C5.34874 22.8284 7.55109 24.0056 9.94869 24.4825C12.3463 24.9594 14.8315 24.7147 17.09 23.7792C19.3485 22.8437 21.2788 21.2594 22.637 19.2269C23.9951 17.1943 24.72 14.8046 24.72 12.36C24.72 10.7369 24.4003 9.12962 23.7792 7.63004C23.158 6.13045 22.2476 4.7679 21.0998 3.62016C19.9521 2.47243 18.5896 1.56201 17.09 0.940857C15.5904 0.319709 13.9831 0 12.36 0Z" fill="black"/>
    <path fill-rule="evenodd" clip-rule="evenodd" d="M13.9502 7.77H15.5202V5.43C15.2802 5.43 15.0302 5.36999 14.7802 5.35999C14.3202 5.35999 13.8602 5.35999 13.4002 5.35999C12.6865 5.34111 11.9856 5.5514 11.4002 5.96C11.079 6.19589 10.8095 6.49503 10.6083 6.83898C10.4071 7.18294 10.2784 7.56444 10.2302 7.96C10.1739 8.29031 10.1472 8.62496 10.1502 8.96C10.1502 9.48 10.1502 9.95999 10.1502 10.53V10.73H7.91016V13.3H10.1302V19.87H12.8502V13.3H15.0702C15.1802 12.43 15.2902 11.57 15.4102 10.68H12.8302C12.8302 10.68 12.8302 9.38 12.8302 8.82C12.8702 8.03 13.3302 7.79 13.9502 7.77Z" fill="black"/>
  </g>
  <defs>
    <clipPath id="clip0_773_3761">
      <rect width="24.72" height="24.72" fill="white"/>
    </clipPath>
  </defs>
</svg>