<svg width="240" height="240" viewBox="0 0 240 240" fill="none" xmlns="http://www.w3.org/2000/svg">
<path d="M119.999 80.7896C98.3777 80.7896 80.7879 98.3794 80.7879 119.999C80.7879 141.621 98.3777 159.209 119.999 159.209C141.619 159.209 159.209 141.619 159.209 119.999C159.21 98.3777 141.621 80.7896 119.999 80.7896ZM119.999 155.314C100.526 155.314 84.6846 139.472 84.6846 119.999C84.6846 100.528 100.526 84.6846 119.999 84.6846C139.472 84.6846 155.314 100.526 155.314 119.999C155.314 139.471 139.472 155.314 119.999 155.314ZM97.6661 115.023C97.6661 113.948 98.5377 113.074 99.6144 113.074H103.258C104.333 113.074 105.206 113.946 105.206 115.023C105.206 116.098 104.334 116.971 103.258 116.971H99.6144C98.5377 116.969 97.6661 116.098 97.6661 115.023ZM103.258 121.799H99.6144C98.5394 121.799 97.6661 120.927 97.6661 119.851C97.6661 118.774 98.5377 117.903 99.6144 117.903H103.258C104.333 117.903 105.206 118.774 105.206 119.851C105.206 120.927 104.334 121.799 103.258 121.799ZM144.791 117.436C144.791 113.703 142.217 110.561 138.751 109.689V100.511C138.751 99.4361 137.879 98.5627 136.802 98.5627H133.567C131.092 98.5627 129.021 100.306 128.509 102.629L107.563 107.704H97.5027C95.0928 107.704 93.1328 109.664 93.1328 112.074V112.249H92.1995C89.3395 112.249 87.0145 114.576 87.0145 117.434C87.0145 120.292 89.3412 122.619 92.1995 122.619H93.1328V122.794C93.1328 125.204 95.0928 127.164 97.5027 127.164H100.701V142.296C100.701 145.509 103.316 148.122 106.528 148.122C109.739 148.122 112.354 145.509 112.354 142.296V128.326L128.509 132.241C129.022 134.564 131.094 136.307 133.567 136.307H136.802C137.877 136.307 138.751 135.436 138.751 134.359V125.182C142.216 124.311 144.791 121.169 144.791 117.436ZM109.743 123.687V111.186L128.386 106.669V128.206L109.743 123.687ZM92.1978 118.726C91.4995 118.726 90.9078 118.136 90.9078 117.436C90.9078 116.736 91.4978 116.146 92.1978 116.146H93.1311V118.724L92.1978 118.726ZM97.0261 122.796V112.074C97.0261 111.818 97.2444 111.599 97.5011 111.599H105.846V123.269H97.5011C97.2444 123.271 97.0261 123.054 97.0261 122.796ZM108.458 142.299C108.458 143.364 107.591 144.231 106.526 144.231C105.461 144.231 104.594 143.364 104.594 142.299V127.167H107.559L108.456 127.384L108.458 142.299ZM134.854 132.414H133.567C132.869 132.414 132.281 131.824 132.281 131.127V103.746C132.281 103.048 132.871 102.459 133.567 102.459H134.854V132.414ZM138.751 121.034V113.839C140.026 114.533 140.894 115.886 140.894 117.438C140.894 118.988 140.026 120.341 138.751 121.034ZM143.057 111.183C142.297 110.423 142.297 109.188 143.057 108.428L145.492 105.993C146.252 105.231 147.487 105.233 148.247 105.993C149.007 106.753 149.007 107.988 148.247 108.748L145.812 111.183C145.432 111.563 144.934 111.753 144.436 111.753C143.936 111.753 143.437 111.563 143.057 111.183ZM152.987 117.436C152.987 118.511 152.115 119.384 151.039 119.384H147.596C146.521 119.384 145.647 118.513 145.647 117.436C145.647 116.361 146.519 115.488 147.596 115.488H151.039C152.114 115.488 152.987 116.361 152.987 117.436ZM148.246 126.126C149.007 126.886 149.007 128.121 148.246 128.881C147.866 129.261 147.367 129.451 146.869 129.451C146.371 129.451 145.872 129.261 145.492 128.881L143.057 126.446C142.296 125.686 142.296 124.451 143.057 123.691C143.817 122.931 145.052 122.931 145.812 123.691L148.246 126.126ZM113.099 62.6965H118.051V76.2547C118.051 77.3296 118.923 78.203 119.999 78.203C121.076 78.203 121.947 77.3313 121.947 76.2547V62.6965H126.901C127.976 62.6965 128.849 61.8248 128.849 60.7482V46.9483C128.847 45.8717 127.976 45 126.899 45H113.099C112.024 45 111.151 45.8717 111.151 46.9483V60.7498C111.151 61.8248 112.023 62.6965 113.099 62.6965ZM115.048 48.8966H124.952V58.8015H115.048V48.8966ZM150.93 91.0162C151.429 91.0162 151.927 90.8262 152.307 90.4462L176.087 66.6664L179.589 70.1681C180.348 70.928 181.583 70.928 182.343 70.1681L192.102 60.4098C192.863 59.6498 192.863 58.4149 192.102 57.6549L182.343 47.8966C181.978 47.5316 181.483 47.3266 180.967 47.3266C180.45 47.3266 179.955 47.5316 179.59 47.8966L169.832 57.6532C169.07 58.4132 169.07 59.6482 169.832 60.4082L173.334 63.9098L149.554 87.6895C148.792 88.4495 148.792 89.6845 149.554 90.4445C149.934 90.8262 150.432 91.0162 150.93 91.0162ZM180.968 52.0266L187.972 59.0298L180.968 66.0331L173.965 59.0298L180.968 52.0266ZM193.05 111.151H179.249C178.174 111.151 177.3 112.023 177.3 113.099V118.053H163.742C162.667 118.053 161.794 118.924 161.794 120.001C161.794 121.077 162.665 121.949 163.742 121.949H177.3V126.901C177.3 127.976 178.172 128.849 179.249 128.849H193.05C194.125 128.849 194.998 127.977 194.998 126.901V113.099C194.998 112.023 194.127 111.151 193.05 111.151ZM191.102 124.951H181.197V115.046H191.102V124.951ZM182.345 169.832C181.585 169.072 180.35 169.07 179.59 169.832L176.089 173.334L152.309 149.554C151.549 148.794 150.315 148.794 149.554 149.554C148.792 150.314 148.792 151.549 149.554 152.309L173.334 176.089L169.832 179.59C169.07 180.35 169.07 181.585 169.832 182.345L179.59 192.103C179.955 192.468 180.45 192.673 180.967 192.673C181.483 192.673 181.978 192.468 182.345 192.103L192.103 182.345C192.863 181.585 192.863 180.35 192.103 179.59L182.345 169.832ZM180.968 187.972L173.965 180.968L180.968 173.965L187.972 180.968L180.968 187.972ZM126.899 177.302H121.946V163.744C121.946 162.669 121.074 161.795 119.997 161.795C118.921 161.795 118.049 162.667 118.049 163.744V177.302H113.099C112.024 177.302 111.151 178.174 111.151 179.25V193.052C111.151 194.127 112.023 195 113.099 195H126.901C127.976 195 128.849 194.128 128.849 193.052V179.25C128.847 178.174 127.976 177.302 126.899 177.302ZM124.952 191.102H115.048V181.197H124.952V191.102ZM87.6912 149.554L63.9098 173.334L60.4082 169.832C60.0432 169.467 59.5482 169.262 59.0315 169.262C58.5148 169.262 58.0199 169.467 57.6549 169.832L47.8966 179.59C47.5316 179.955 47.3266 180.452 47.3266 180.967C47.3266 181.483 47.5316 181.978 47.8966 182.343L57.6549 192.102C58.0199 192.467 58.5165 192.672 59.0315 192.672C59.5482 192.672 60.0432 192.467 60.4082 192.102L70.1664 182.343C70.928 181.583 70.928 180.348 70.1664 179.589L66.6648 176.087L90.4445 152.307C91.2062 151.547 91.2062 150.312 90.4445 149.552C89.6845 148.792 88.4512 148.792 87.6912 149.554ZM59.0315 187.972L52.0283 180.968L59.0315 173.965L66.0348 180.968L59.0315 187.972ZM62.6965 126.899V121.947H76.2547C77.3296 121.947 78.203 121.076 78.203 119.999C78.203 118.923 77.3313 118.051 76.2547 118.051H62.6965V113.099C62.6965 112.024 61.8248 111.151 60.7482 111.151H46.9483C45.8717 111.151 45 112.023 45 113.099V126.901C45 127.976 45.8717 128.849 46.9483 128.849H60.7498C61.8248 128.847 62.6965 127.976 62.6965 126.899ZM58.8015 124.951H48.8966V115.046H58.8015V124.951ZM57.6532 70.1664C58.4132 70.9264 59.6482 70.9264 60.4082 70.1664L63.9098 66.6648L87.6895 90.4445C88.0695 90.8245 88.5679 91.0145 89.0662 91.0145C89.5645 91.0145 90.0628 90.8245 90.4428 90.4445C91.2045 89.6845 91.2045 88.4495 90.4428 87.6895L66.6648 63.9098L70.1664 60.4082C70.928 59.6482 70.928 58.4132 70.1664 57.6532L60.4082 47.895C60.0432 47.53 59.5482 47.325 59.0315 47.325C58.5148 47.325 58.0199 47.53 57.6549 47.895L47.8966 57.6532C47.5316 58.0182 47.3266 58.5132 47.3266 59.0298C47.3266 59.5465 47.5316 60.0415 47.8966 60.4065L57.6532 70.1664ZM59.0315 52.0266L66.0348 59.0298L59.0315 66.0331L52.0283 59.0298L59.0315 52.0266Z" fill="black"/>
</svg>
