<svg width="240" height="240" viewBox="0 0 240 240" fill="none" xmlns="http://www.w3.org/2000/svg">
<path fill-rule="evenodd" clip-rule="evenodd" d="M72.9517 84.4521H111.618V119.167H72.9517V84.4521ZM70.6067 123.863H113.958C114.266 123.863 114.57 123.802 114.854 123.684C115.137 123.566 115.395 123.393 115.612 123.176C115.829 122.958 116 122.699 116.117 122.415C116.234 122.131 116.293 121.826 116.292 121.519V82.1071C116.292 81.4873 116.046 80.8928 115.609 80.4536C115.172 80.0144 114.578 79.7664 113.958 79.7637H70.6067C69.985 79.7637 69.3888 80.0106 68.9491 80.45C68.5094 80.8894 68.2621 81.4854 68.2617 82.1071V121.519C68.2603 121.827 68.3201 122.133 68.4375 122.418C68.5549 122.703 68.7276 122.962 68.9456 123.18C69.1637 123.398 69.4227 123.57 69.7078 123.687C69.9929 123.805 70.2984 123.864 70.6067 123.863ZM128.393 109.761H139.333V119.167H128.393V109.761ZM126.048 123.863H141.68C141.987 123.863 142.291 123.802 142.575 123.684C142.859 123.566 143.117 123.393 143.333 123.176C143.55 122.958 143.722 122.699 143.839 122.415C143.955 122.131 144.015 121.826 144.013 121.519V107.416C144.013 106.797 143.767 106.203 143.33 105.766C142.892 105.328 142.299 105.082 141.68 105.082H126.048C125.428 105.082 124.833 105.327 124.394 105.765C123.954 106.202 123.706 106.796 123.703 107.416V121.519C123.704 122.141 123.951 122.737 124.391 123.176C124.83 123.616 125.427 123.863 126.048 123.863ZM167.055 119.167H156.113V109.761H167.055V119.167ZM169.4 105.072H153.768C153.149 105.072 152.554 105.318 152.115 105.755C151.676 106.192 151.428 106.786 151.425 107.406V121.509C151.425 122.131 151.672 122.726 152.112 123.166C152.551 123.605 153.147 123.852 153.768 123.853H169.4C169.707 123.853 170.011 123.792 170.295 123.674C170.579 123.556 170.837 123.383 171.053 123.166C171.27 122.948 171.442 122.689 171.559 122.405C171.675 122.121 171.735 121.816 171.733 121.509V107.416C171.733 107.109 171.673 106.806 171.556 106.523C171.438 106.24 171.267 105.982 171.05 105.766C170.833 105.549 170.576 105.377 170.293 105.26C170.01 105.143 169.706 105.082 169.4 105.082V105.072ZM128.4 84.4454H167.067V93.8589H128.4V84.4521V84.4454ZM126.055 98.5473H169.4C170.02 98.5446 170.613 98.2966 171.051 97.8574C171.488 97.4182 171.733 96.8237 171.733 96.2039V82.1071C171.733 81.4873 171.488 80.8928 171.051 80.4536C170.613 80.0144 170.02 79.7664 169.4 79.7637H126.048C125.427 79.7646 124.831 80.0117 124.392 80.4509C123.952 80.8902 123.705 81.4857 123.703 82.1071V96.2106C123.705 96.832 123.952 97.4275 124.392 97.8667C124.831 98.3059 125.427 98.553 126.048 98.5539L126.055 98.5473ZM171.833 59.6668C171.832 60.2864 171.586 60.8803 171.149 61.3195C170.712 61.7586 170.119 62.0075 169.5 62.0119H127.592C126.97 62.0119 126.373 61.7648 125.934 61.325C125.494 60.8852 125.247 60.2888 125.247 59.6668C125.247 59.0449 125.494 58.4484 125.934 58.0086C126.373 57.5689 126.97 57.3218 127.592 57.3218H169.5C170.12 57.3253 170.713 57.5739 171.15 58.0132C171.587 58.4526 171.833 59.047 171.833 59.6668ZM101.237 60.7752C101.017 60.7745 100.802 60.7087 100.62 60.586C100.437 60.4633 100.295 60.2892 100.212 60.0858C100.128 59.8825 100.107 59.6589 100.15 59.4434C100.194 59.2278 100.3 59.0301 100.456 58.8751C100.612 58.7201 100.811 58.6148 101.026 58.5725C101.242 58.5303 101.466 58.553 101.668 58.6377C101.871 58.7225 102.045 58.8655 102.166 59.0487C102.288 59.2318 102.352 59.447 102.352 59.6668C102.352 59.8129 102.323 59.9576 102.267 60.0925C102.211 60.2274 102.128 60.3499 102.025 60.4529C101.921 60.5559 101.798 60.6374 101.663 60.6927C101.528 60.748 101.383 60.7761 101.237 60.7752ZM101.237 53.8634C100.09 53.8654 98.9698 54.2072 98.0174 54.8455C97.065 55.4839 96.3232 56.3903 95.8856 57.4501C95.4481 58.5099 95.3344 59.6756 95.5591 60.7999C95.7837 61.9243 96.3366 62.9568 97.1478 63.7671C97.959 64.5774 98.9922 65.1291 100.117 65.3524C101.241 65.5758 102.407 65.4608 103.466 65.0221C104.526 64.5833 105.431 63.8404 106.068 62.8872C106.706 61.9341 107.046 60.8134 107.047 59.6668C107.046 58.1279 106.434 56.6523 105.346 55.5642C104.258 54.476 102.782 53.8643 101.243 53.8634H101.237ZM87.5967 60.7752C87.3018 60.7752 87.0191 60.6581 86.8106 60.4496C86.6021 60.2411 86.485 59.9583 86.485 59.6635C86.485 59.3687 86.6021 59.0859 86.8106 58.8774C87.0191 58.6689 87.3018 58.5518 87.5967 58.5518C87.7427 58.5518 87.8872 58.5806 88.0221 58.6364C88.157 58.6923 88.2795 58.7742 88.3827 58.8774C88.486 58.9806 88.5678 59.1032 88.6237 59.2381C88.6796 59.373 88.7083 59.5175 88.7083 59.6635C88.7083 59.8095 88.6796 59.954 88.6237 60.0889C88.5678 60.2238 88.486 60.3463 88.3827 60.4496C88.2795 60.5528 88.157 60.6347 88.0221 60.6906C87.8872 60.7464 87.7427 60.7752 87.5967 60.7752ZM87.5967 53.8634C86.4498 53.8641 85.3289 54.2047 84.3756 54.8423C83.4223 55.4799 82.6794 56.3858 82.2409 57.4454C81.8023 58.5051 81.6877 59.6711 81.9116 60.7958C82.1355 61.9206 82.6878 62.9538 83.4988 63.7648C84.3097 64.5757 85.3429 65.128 86.4677 65.352C87.5924 65.5759 88.7583 65.4613 89.818 65.0227C90.8777 64.5841 91.7836 63.8412 92.4211 62.8879C93.0587 61.9346 93.3993 60.8137 93.4 59.6668C93.3987 58.1292 92.7878 56.6549 91.7011 55.567C90.6145 54.4792 89.1409 53.8665 87.6033 53.8634H87.5967ZM73.9567 60.7752C73.7368 60.7745 73.5221 60.7087 73.3396 60.586C73.1572 60.4633 73.0152 60.2892 72.9317 60.0858C72.8482 59.8825 72.8268 59.6589 72.8704 59.4434C72.9139 59.2278 73.0204 59.0301 73.1763 58.8751C73.3322 58.7201 73.5306 58.6148 73.7464 58.5725C73.9622 58.5303 74.1856 58.553 74.3885 58.6377C74.5914 58.7225 74.7646 58.8655 74.8862 59.0487C75.0078 59.2318 75.0723 59.447 75.0717 59.6668C75.0703 59.9615 74.9522 60.2437 74.7432 60.4514C74.5342 60.6592 74.2514 60.7756 73.9567 60.7752ZM73.9567 53.8634C72.8098 53.8641 71.6889 54.2047 70.7356 54.8423C69.7823 55.4799 69.0394 56.3858 68.6009 57.4454C68.1623 58.5051 68.0477 59.6711 68.2716 60.7958C68.4955 61.9206 69.0478 62.9538 69.8588 63.7648C70.6697 64.5757 71.7029 65.128 72.8277 65.352C73.9524 65.5759 75.1183 65.4613 76.178 65.0227C77.2377 64.5841 78.1436 63.8412 78.7811 62.8879C79.4187 61.9346 79.7593 60.8137 79.76 59.6668C79.7596 58.129 79.1489 56.6541 78.0621 55.5661C76.9753 54.478 75.5012 53.8656 73.9633 53.8634H73.9567ZM190.318 170.763V76.957C190.316 76.0247 189.944 75.1314 189.284 74.4727C188.624 73.8139 187.731 73.4433 186.798 73.442H181.117V127.961C181.114 129.84 180.367 131.642 179.038 132.971C177.709 134.3 175.908 135.047 174.028 135.049H65.9717C64.0924 135.047 62.2907 134.3 60.9619 132.971C59.6331 131.642 58.8855 129.84 58.8833 127.961V73.442H53.2017C52.2701 73.4437 51.3773 73.8147 50.7187 74.4736C50.0602 75.1324 49.6897 76.0255 49.6883 76.957V170.763C49.6892 171.695 50.0596 172.588 50.7182 173.247C51.3769 173.906 52.27 174.277 53.2017 174.278H186.798C187.731 174.277 188.625 173.907 189.285 173.248C189.944 172.589 190.316 171.696 190.318 170.763ZM128.073 190.313H111.927V178.966H128.073V190.313ZM63.5733 73.442V127.961C63.5733 128.597 63.826 129.207 64.2757 129.657C64.7254 130.107 65.3354 130.361 65.9717 130.361H174.028C174.665 130.361 175.275 130.107 175.724 129.657C176.174 129.207 176.427 128.597 176.427 127.961V73.442H63.5733ZM63.5733 52.0834V68.7503H176.427V52.0834C176.426 51.4474 176.173 50.8378 175.723 50.3879C175.274 49.938 174.664 49.6847 174.028 49.6834H65.9717C65.3357 49.6847 64.7262 49.938 64.2767 50.3879C63.8271 50.8378 63.5742 51.4474 63.5733 52.0834ZM186.798 68.7503H181.117V52.0834C181.114 50.2046 180.367 48.4034 179.038 47.0754C177.709 45.7473 175.907 45.0009 174.028 45H65.9717C64.0929 45.0009 62.2912 45.7473 60.9622 47.0754C59.6332 48.4034 58.8855 50.2046 58.8833 52.0834V68.7503H53.2017C51.0264 68.7529 48.9411 69.6186 47.4034 71.1572C45.8657 72.6958 45.0013 74.7817 45 76.957V170.763C45.0031 172.938 45.8681 175.022 47.4055 176.56C48.9429 178.097 51.0272 178.963 53.2017 178.966H107.243V190.313H100.252C99.9439 190.313 99.6392 190.374 99.3549 190.492C99.0706 190.609 98.8123 190.782 98.5947 191C98.3771 191.217 98.2045 191.476 98.0867 191.76C97.9689 192.044 97.9083 192.349 97.9083 192.657C97.9083 192.964 97.9689 193.269 98.0867 193.553C98.2045 193.838 98.3771 194.096 98.5947 194.314C98.8123 194.531 99.0706 194.704 99.3549 194.822C99.6392 194.939 99.9439 195 100.252 195H139.752C140.373 195 140.969 194.753 141.409 194.314C141.848 193.874 142.095 193.278 142.095 192.657C142.095 192.035 141.848 191.439 141.409 191C140.969 190.56 140.373 190.313 139.752 190.313H132.763V178.966H186.798C188.973 178.963 191.057 178.097 192.594 176.56C194.132 175.022 194.997 172.938 195 170.763V76.957C194.998 74.7823 194.133 72.6973 192.595 71.1593C191.058 69.6214 188.973 68.7562 186.798 68.7536V68.7503Z" fill="black"/>
</svg>
