<svg width="28" height="28" viewBox="0 0 28 28" fill="none" xmlns="http://www.w3.org/2000/svg">
<path d="M20.2218 28C19.5389 28 18.0511 27.8189 16.187 27.267C16.1838 27.2659 16.1799 27.2648 16.1767 27.2637C12.5672 26.1544 9.41799 24.2531 6.54864 21.4509C6.54156 21.4443 6.53502 21.4372 6.52794 21.4301C3.73538 18.5458 1.83972 15.3803 0.733693 11.7527C0.732604 11.7494 0.731515 11.7456 0.730426 11.7423C0.129763 9.69599 -0.0303417 8.10096 0.00451091 7.51896H0.000154335C0.0224818 7.2017 0.145011 6.72418 0.885084 5.58753C1.34579 4.88027 1.95027 4.06962 2.58796 3.30383C5.27052 0.0809551 6.42175 0.0213327 6.80023 0.00164098C6.82038 0.000546993 6.84053 0.000546993 6.86122 0C7.76467 0.00656391 8.60058 0.366485 9.17021 0.990057C9.24699 1.05952 9.30798 1.1279 9.35427 1.17986C9.70171 1.5726 10.7097 2.83287 11.6066 4.21895C12.8733 6.17664 13.3416 7.46098 13.1233 8.37883C12.8885 9.42413 12.1801 10.0329 11.11 10.953L11.0958 10.965C11.0185 11.0317 10.9036 11.1302 10.7756 11.2423C10.8616 11.4874 10.9569 11.7286 11.061 11.9622C11.062 11.9649 11.0631 11.9671 11.0642 11.9698C12.0265 14.177 13.7664 15.924 15.9632 16.8906C15.9654 16.8917 15.9681 16.8928 15.9708 16.8939C16.2034 16.9983 16.4435 17.0946 16.6875 17.1805C16.7926 17.0596 16.8884 16.9469 16.9663 16.855C17.8872 15.7747 18.4955 15.062 19.5334 14.824C20.4559 14.5987 21.7427 15.0718 23.7021 16.3551C25.0968 17.2686 26.3378 18.2767 26.7201 18.6218C26.7697 18.6667 26.835 18.7257 26.9009 18.8001C27.5152 19.3712 27.8697 20.2064 27.8757 21.1079C27.8757 21.1281 27.8757 21.1484 27.8741 21.1686C27.842 21.7911 27.4711 22.4896 26.706 23.367C26.0269 24.1459 25.1784 24.9018 24.5865 25.3991C23.8241 26.039 23.017 26.6462 22.3129 27.1095C21.1813 27.8534 20.7059 27.9765 20.39 27.9984V27.994C20.3405 27.9967 20.2844 27.9984 20.2207 27.9984L20.2218 28ZM16.7768 25.2749C18.7258 25.8509 19.9342 25.9176 20.2087 25.9247C20.5529 25.7989 21.7591 25.0703 23.2926 23.7783C24.7983 22.5093 25.5531 21.5778 25.7579 21.1703C25.7922 21.1024 25.8047 21.0248 25.7944 20.9493C25.7579 20.6867 25.6441 20.4548 25.4752 20.3087C25.4306 20.2699 25.3892 20.2278 25.3522 20.1829C25.1175 19.9658 24.0702 19.1075 22.8613 18.2903C20.7887 16.8895 20.0785 16.849 20.005 16.849C20.005 16.849 19.9996 16.8501 19.9968 16.8507C19.638 16.9311 19.3107 17.3014 18.5407 18.2045C18.4252 18.3401 18.2733 18.5179 18.1094 18.7055C17.641 19.2399 16.9037 19.4418 16.2306 19.2202C15.8554 19.0966 15.4851 18.9527 15.1295 18.793C12.4578 17.6164 10.3416 15.4914 9.17075 12.8078C9.01174 12.4501 8.86851 12.0781 8.74544 11.7013C8.52434 11.0257 8.72529 10.2851 9.25734 9.81469C9.45338 9.64129 9.63854 9.48211 9.74909 9.38639L9.76379 9.37381C10.6618 8.602 11.0277 8.27545 11.1056 7.91443C11.1056 7.84168 11.0626 7.12895 9.66631 5.04108C8.85272 3.82457 7.99992 2.77161 7.78536 2.53586C7.74125 2.49921 7.69986 2.45818 7.66174 2.41388C7.50599 2.23173 7.25168 2.11303 6.96687 2.08459C6.92548 2.08076 6.88464 2.08842 6.84652 2.10537C6.46858 2.2733 5.51776 3.03034 4.20316 4.60349C2.91688 6.14382 2.19151 7.35541 2.06626 7.70111C2.07389 7.97679 2.13978 9.19111 2.7143 11.1493C3.72067 14.4472 5.45023 17.3326 8.00155 19.9707C10.6253 22.5301 13.4957 24.2651 16.7773 25.2749H16.7768Z" fill="black"/>
</svg>
