<svg width="32" height="32" viewBox="0 0 32 32" fill="none" xmlns="http://www.w3.org/2000/svg">
<path d="M16.0006 16C16.734 16 17.3618 15.7389 17.884 15.2167C18.4062 14.6945 18.6673 14.0667 18.6673 13.3334C18.6673 12.6 18.4062 11.9722 17.884 11.45C17.3618 10.9278 16.734 10.6667 16.0006 10.6667C15.2673 10.6667 14.6395 10.9278 14.1173 11.45C13.5951 11.9722 13.334 12.6 13.334 13.3334C13.334 14.0667 13.5951 14.6945 14.1173 15.2167C14.6395 15.7389 15.2673 16 16.0006 16ZM16.0006 25.8C18.7118 23.3111 20.7229 21.05 22.034 19.0167C23.3451 16.9834 24.0006 15.1778 24.0006 13.6C24.0006 11.1778 23.2284 9.19447 21.684 7.65002C20.1395 6.10558 18.2451 5.33335 16.0006 5.33335C13.7562 5.33335 11.8618 6.10558 10.3173 7.65002C8.77287 9.19447 8.00065 11.1778 8.00065 13.6C8.00065 15.1778 8.65621 16.9834 9.96732 19.0167C11.2784 21.05 13.2895 23.3111 16.0006 25.8ZM16.0006 29.3334C12.4229 26.2889 9.75065 23.4611 7.98398 20.85C6.21732 18.2389 5.33398 15.8222 5.33398 13.6C5.33398 10.2667 6.40621 7.61113 8.55065 5.63335C10.6951 3.65558 13.1784 2.66669 16.0006 2.66669C18.8229 2.66669 21.3062 3.65558 23.4506 5.63335C25.5951 7.61113 26.6673 10.2667 26.6673 13.6C26.6673 15.8222 25.784 18.2389 24.0173 20.85C22.2506 23.4611 19.5784 26.2889 16.0006 29.3334Z" fill="black"/>
</svg>
