<svg width="37" height="36" viewBox="0 0 37 36" fill="none" xmlns="http://www.w3.org/2000/svg">
<path d="M14.2792 14.0898H10.7393V25.5398H14.2792V14.0898Z" fill="#666666"/>
<path d="M12.4994 12.5901C13.6594 12.5901 14.5994 11.6401 14.5994 10.4801C14.5994 9.32012 13.6594 8.37012 12.4994 8.37012C11.3394 8.37012 10.3994 9.32012 10.3994 10.4801C10.3994 11.6401 11.3394 12.5901 12.4994 12.5901Z" fill="#666666"/>
<path d="M19.9498 19.5302C19.9498 17.9202 20.6898 16.9602 22.1098 16.9602C23.4098 16.9602 24.0398 17.8802 24.0398 19.5302V25.5402H27.5698V18.2902C27.5698 15.2202 25.8298 13.7402 23.3998 13.7402C20.9698 13.7402 19.9498 15.6302 19.9498 15.6302V14.0902H16.5498V25.5402H19.9498V19.5302Z" fill="#666666"/>
<path d="M18.5099 0.780273H18.4999C9.04476 0.780273 1.37988 8.44516 1.37988 17.9003V17.9103C1.37988 27.3654 9.04476 35.0303 18.4999 35.0303H18.5099C27.965 35.0303 35.6299 27.3654 35.6299 17.9103V17.9003C35.6299 8.44516 27.965 0.780273 18.5099 0.780273Z" stroke="#666666" stroke-width="1.5" stroke-miterlimit="10"/>
</svg>
