<svg width="37" height="36" viewBox="0 0 37 36" fill="none" xmlns="http://www.w3.org/2000/svg">
<path d="M18.4696 35.0203C9.0096 35.0203 1.34961 27.3503 1.34961 17.9003C1.34961 8.44027 9.0196 0.780273 18.4696 0.780273C27.9296 0.780273 35.5896 8.45027 35.5896 17.9003C35.5896 27.3603 27.9196 35.0203 18.4696 35.0203Z" stroke="#666666" stroke-width="1.5" stroke-miterlimit="10"/>
<path d="M26.9902 16.7787C26.9902 18.8946 26.2496 20.8287 24.9062 22.2265C23.6518 23.5287 21.9512 24.2787 20.2402 24.2787C18.564 24.2787 17.4446 23.7293 16.7312 23.1537L15.7205 27.4493C15.682 27.6141 15.5889 27.7611 15.4563 27.8662C15.3238 27.9714 15.1595 28.0287 14.9902 28.0287C14.9322 28.0286 14.8743 28.022 14.8177 28.009C14.7215 27.9869 14.6305 27.946 14.5501 27.8887C14.4697 27.8314 14.4014 27.7587 14.3491 27.6749C14.2969 27.5911 14.2617 27.4978 14.2456 27.4004C14.2294 27.3029 14.2327 27.2033 14.2552 27.1071L17.2552 14.3571C17.3007 14.1634 17.4213 13.9958 17.5905 13.891C17.7596 13.7862 17.9634 13.7529 18.1571 13.7984C18.3508 13.8439 18.5185 13.9645 18.6233 14.1336C18.7281 14.3027 18.7614 14.5066 18.7159 14.7003L17.1315 21.4315C17.4277 21.8412 18.2996 22.7787 20.2402 22.7787C22.8212 22.7787 25.4902 20.5343 25.4902 16.7787C25.4898 15.7436 25.2514 14.7224 24.7933 13.7941C24.3352 12.8659 23.6697 12.0554 22.8484 11.4254C22.0271 10.7954 21.0719 10.3628 20.0566 10.1609C19.0413 9.95905 17.9933 9.99338 16.9934 10.2613C15.9935 10.5291 15.0687 11.0234 14.2903 11.7058C13.512 12.3882 12.901 13.2405 12.5047 14.1967C12.1083 15.1529 11.9372 16.1875 12.0045 17.2205C12.0719 18.2534 12.3759 19.257 12.893 20.1537C12.9863 20.3255 13.0089 20.5269 12.9558 20.7151C12.9028 20.9032 12.7784 21.0632 12.6091 21.161C12.4398 21.2588 12.239 21.2866 12.0495 21.2386C11.86 21.1905 11.6968 21.0703 11.5946 20.9037C10.9622 19.8078 10.5903 18.5811 10.5078 17.3184C10.4253 16.0558 10.6343 14.7912 11.1186 13.6222C11.603 12.4533 12.3497 11.4114 13.301 10.5772C14.2524 9.74302 15.3829 9.13882 16.6051 8.81135C17.8273 8.48389 19.1084 8.44193 20.3494 8.68874C21.5904 8.93554 22.758 9.46448 23.7619 10.2347C24.7658 11.0048 25.5791 11.9956 26.1389 13.1304C26.6987 14.2651 26.99 15.5134 26.9902 16.7787Z" fill="#666666"/>
</svg>
