<svg width="36" height="36" viewBox="0 0 36 36" fill="none" xmlns="http://www.w3.org/2000/svg">
<path d="M17.9501 35.0203C8.4901 35.0203 0.830078 27.3503 0.830078 17.9003C0.830078 8.44027 8.5001 0.780273 17.9501 0.780273C27.4101 0.780273 35.0701 8.45027 35.0701 17.9003C35.0701 27.3603 27.4001 35.0203 17.9501 35.0203Z" stroke="#666666" stroke-width="1.5" stroke-miterlimit="10"/>
<path d="M26.009 25.3781L20.1402 16.155L25.9312 9.78465C26.0621 9.63701 26.1296 9.44371 26.119 9.24664C26.1084 9.04957 26.0206 8.86462 25.8745 8.73189C25.7285 8.59916 25.536 8.52934 25.3388 8.53758C25.1416 8.54582 24.9556 8.63145 24.8212 8.7759L19.3049 14.8434L15.509 8.87809C15.4413 8.77154 15.3478 8.68381 15.2372 8.62301C15.1266 8.56221 15.0024 8.53031 14.8762 8.53027H10.3762C10.2417 8.53021 10.1097 8.5663 9.99393 8.63477C9.8782 8.70323 9.783 8.80156 9.7183 8.91945C9.6536 9.03734 9.6218 9.17045 9.6262 9.30486C9.63061 9.43926 9.67107 9.57 9.74335 9.6834L15.6121 18.9056L9.82117 25.2806C9.75354 25.3532 9.70101 25.4386 9.66661 25.5317C9.63221 25.6248 9.61663 25.7238 9.62077 25.8229C9.62491 25.9221 9.6487 26.0194 9.69074 26.1093C9.73279 26.1992 9.79226 26.2799 9.86571 26.3467C9.93915 26.4134 10.0251 26.4649 10.1186 26.4982C10.2121 26.5315 10.3113 26.5459 10.4104 26.5405C10.5095 26.5352 10.6066 26.5103 10.696 26.4671C10.7854 26.424 10.8653 26.3636 10.9312 26.2893L16.4474 20.2218L20.2434 26.1871C20.3116 26.2928 20.4053 26.3796 20.5159 26.4396C20.6265 26.4996 20.7504 26.5307 20.8762 26.5303H25.3762C25.5105 26.5302 25.6423 26.4941 25.7579 26.4257C25.8735 26.3573 25.9686 26.2591 26.0333 26.1413C26.098 26.0236 26.1298 25.8906 26.1256 25.7564C26.1213 25.6221 26.081 25.4915 26.009 25.3781ZM21.2877 25.0303L11.7421 10.0303H14.4609L24.0102 25.0303H21.2877Z" fill="#666666"/>
</svg>
