<svg width="37" height="36" viewBox="0 0 37 36" fill="none" xmlns="http://www.w3.org/2000/svg">
<path d="M18.7099 35.0203C9.24985 35.0203 1.58984 27.3503 1.58984 17.9003C1.58984 8.44027 9.25985 0.780273 18.7099 0.780273C28.1699 0.780273 35.8298 8.45027 35.8298 17.9003C35.8298 27.3603 28.1599 35.0203 18.7099 35.0203Z" stroke="#666666" stroke-width="1.5" stroke-miterlimit="10"/>
<path d="M28.97 12.7106C28.72 11.7806 28 11.0506 27.08 10.8006C25.41 10.3506 18.71 10.3506 18.71 10.3506C18.71 10.3506 12.01 10.3506 10.34 10.8006C9.42 11.0506 8.69 11.7806 8.45 12.7106C8 14.3906 8 17.9006 8 17.9006C8 17.9006 8 21.4106 8.45 23.0906C8.7 24.0206 9.42 24.7506 10.34 25.0006C12.01 25.4506 18.71 25.4506 18.71 25.4506C18.71 25.4506 25.41 25.4506 27.08 25.0006C28 24.7506 28.73 24.0206 28.97 23.0906C29.42 21.4106 29.42 17.9006 29.42 17.9006C29.42 17.9006 29.42 14.3906 28.97 12.7106ZM16.52 21.0806V14.7106L22.12 17.8906L16.52 21.0706V21.0806Z" fill="#666666"/>
</svg>
