<svg width="25" height="25" viewBox="0 0 25 25" fill="none" xmlns="http://www.w3.org/2000/svg">
<g clip-path="url(#clip0_1023_1205)">
<path d="M12.36 1.69C14.4703 1.69 16.5333 2.31579 18.2879 3.48822C20.0426 4.66066 21.4102 6.32708 22.2178 8.27676C23.0254 10.2265 23.2367 12.3718 22.825 14.4416C22.4133 16.5114 21.3971 18.4126 19.9048 19.9048C18.4126 21.3971 16.5114 22.4133 14.4416 22.825C12.3718 23.2367 10.2265 23.0254 8.27677 22.2178C6.32709 21.4102 4.66066 20.0426 3.48823 18.2879C2.31579 16.5333 1.69001 14.4703 1.69001 12.36C1.69529 9.53176 2.82115 6.82088 4.82102 4.82101C6.82088 2.82115 9.53177 1.69529 12.36 1.69ZM12.36 0C9.91543 0 7.52575 0.724904 5.49316 2.08304C3.46057 3.44117 1.87635 5.37154 0.940855 7.63004C0.00535595 9.88853 -0.239414 12.3737 0.237499 14.7713C0.714413 17.1689 1.89159 19.3713 3.62017 21.0998C5.34874 22.8284 7.55109 24.0056 9.94869 24.4825C12.3463 24.9594 14.8315 24.7147 17.09 23.7792C19.3485 22.8437 21.2788 21.2594 22.637 19.2269C23.9951 17.1943 24.72 14.8046 24.72 12.36C24.72 10.7369 24.4003 9.12962 23.7792 7.63004C23.158 6.13045 22.2476 4.7679 21.0998 3.62016C19.9521 2.47243 18.5896 1.56201 17.09 0.940857C15.5904 0.319709 13.9831 0 12.36 0Z" fill="black"/>
<g clip-path="url(#clip1_1023_1205)">
<path d="M11.232 11.5233C11.5434 11.3551 11.7785 11.1706 11.9387 10.9672C12.2242 10.605 12.3676 10.1263 12.3676 9.5295C12.3676 8.93273 12.2242 8.45395 11.9387 8.03893C11.4633 7.36484 10.6558 7.01763 9.51641 7H5V16.7613H9.21411C9.68952 16.7613 10.13 16.7165 10.5357 16.6284C10.9413 16.5402 11.294 16.3761 11.5925 16.1387C11.8573 15.9312 12.0782 15.6749 12.2552 15.3711C12.5329 14.9127 12.6712 14.3932 12.6712 13.8154C12.6712 13.2376 12.5497 12.7778 12.3082 12.3845C12.0666 11.9912 11.7074 11.705 11.232 11.5233ZM6.85514 8.69537H8.89889C9.34846 8.69537 9.71923 8.74556 10.0086 8.84728C10.3445 8.9924 10.5137 9.2935 10.5137 9.74786C10.5137 10.1588 10.3871 10.4436 10.1352 10.6023C9.87813 10.7651 9.54612 10.8478 9.13918 10.8478H6.85514V8.69537ZM10.09 14.8937C9.86263 15.009 9.54483 15.0659 9.13789 15.0659H6.85514V12.4632H9.17018C9.57325 12.4672 9.88718 12.5229 10.1107 12.6286C10.5099 12.8185 10.7101 13.1671 10.7101 13.6744C10.7101 14.2752 10.5034 14.6807 10.0913 14.8923L10.09 14.8937Z" fill="black"/>
<path d="M19.9418 12.2448C19.8617 11.6792 19.6873 11.1828 19.4186 10.7542C19.1202 10.2687 18.7417 9.91333 18.283 9.68818C17.8244 9.46304 17.309 9.35046 16.738 9.35046C15.7755 9.35046 14.9913 9.68411 14.388 10.3501C13.7847 11.0174 13.4824 11.9749 13.4824 13.2241C13.4824 14.5573 13.817 15.5203 14.4849 16.1116C15.1541 16.703 15.9254 16.9986 16.8 16.9986C17.8593 16.9986 18.6835 16.6474 19.2726 15.9462C19.6511 15.5054 19.863 15.07 19.9095 14.6414H18.0738C17.9769 14.853 17.8658 15.0184 17.7392 15.1378C17.5079 15.3589 17.2069 15.4687 16.8374 15.4687C16.4886 15.4687 16.1902 15.3779 15.9422 15.1975C15.5339 14.9059 15.3182 14.3986 15.2923 13.6743H19.9987C20.0064 13.0518 19.9883 12.5744 19.9418 12.2435V12.2448ZM15.3363 12.4306C15.3957 11.9627 15.5391 11.5924 15.7678 11.3185C15.9964 11.0445 16.3194 10.9075 16.7367 10.9075C17.1191 10.9075 17.4394 11.0363 17.6991 11.2954C17.9588 11.5545 18.1022 11.9329 18.1306 12.4306H15.3363Z" fill="black"/>
<path d="M18.7675 7.49776H14.7148V8.49328H18.7675V7.49776Z" fill="black"/>
</g>
</g>
<defs>
<clipPath id="clip0_1023_1205">
<rect width="24.72" height="24.72" fill="white"/>
</clipPath>
<clipPath id="clip1_1023_1205">
<rect width="15" height="10" fill="white" transform="translate(5 7)"/>
</clipPath>
</defs>
</svg>
